/* XPM */
static char *xpm_[] = {
/* columns rows colors chars-per-pixel */
"50 50 212 2 ",
"   c #4A4036",
".  c #584B3D",
"X  c #625637",
"o  c #71633E",
"O  c #695E49",
"+  c #76684C",
"@  c #756653",
"#  c #830103",
"$  c #8B0003",
"%  c #820B0B",
"&  c #930003",
"*  c #9C0003",
"=  c #94050A",
"-  c #880C11",
";  c #930C11",
":  c #851815",
">  c #93141B",
",  c #A30104",
"<  c #AC0004",
"1  c #A7020B",
"2  c #B40105",
"3  c #BA0106",
"4  c #BD010A",
"5  c #A90B16",
"6  c #B50F1A",
"7  c #87261D",
"8  c #9D1C25",
"9  c #BD0F23",
"0  c #A51C23",
"q  c #B81C29",
"w  c #8B2625",
"e  c #992127",
"r  c #863526",
"t  c #8D3935",
"y  c #96383B",
"u  c #AE2E36",
"i  c #C6000A",
"p  c #CA0114",
"a  c #D60117",
"s  c #D3041D",
"d  c #F9011E",
"f  c #D90D23",
"g  c #C81B29",
"h  c #DE192C",
"j  c #E90D28",
"k  c #F60325",
"l  c #FA0223",
"z  c #F6092A",
"x  c #E4132A",
"c  c #EB152D",
"v  c #E81A2E",
"b  c #F3112A",
"n  c #F4182E",
"m  c #EA1B34",
"M  c #F31932",
"N  c #F91A3A",
"B  c #CA253A",
"V  c #E62233",
"C  c #ED2335",
"Z  c #EB273A",
"A  c #F32239",
"S  c #8A452D",
"D  c #904C3B",
"F  c #8B5737",
"G  c #8D613D",
"H  c #983F42",
"J  c #CE2F44",
"K  c #D53649",
"L  c #E72B44",
"P  c #F72947",
"I  c #E8384F",
"U  c #EE3851",
"Y  c #F43855",
"T  c #984A4D",
"R  c #8C5B46",
"E  c #BD535E",
"W  c #8D6742",
"Q  c #916A42",
"!  c #8D754B",
"~  c #997A4F",
"^  c #956D6A",
"/  c #897864",
"(  c #9A7D76",
")  c #AB6B6D",
"_  c #B2707A",
"`  c #D24053",
"'  c #E4435D",
"]  c #C95768",
"[  c #EA4A64",
"{  c #F14D66",
"}  c #E95A74",
"|  c #D7667A",
" . c #EF697E",
".. c #A3864D",
"X. c #A68A4E",
"o. c #A58956",
"O. c #A38B5A",
"+. c #AC9357",
"@. c #B69A5B",
"#. c #B79E5D",
"$. c #BAA15E",
"%. c #939173",
"&. c #A99566",
"*. c #B19462",
"=. c #B49C64",
"-. c #AB927B",
";. c #8AA378",
":. c #BBA465",
">. c #BDA66A",
",. c #B8AE7F",
"<. c #C3AC64",
"1. c #C2AC6B",
"2. c #C9B168",
"3. c #CAB36C",
"4. c #CAB472",
"5. c #C9B675",
"6. c #D4BD72",
"7. c #D2BD7A",
"8. c #DAC276",
"9. c #DEC678",
"0. c #A97788",
"q. c #D4788C",
"w. c #EC7184",
"e. c #40AF81",
"r. c #49AF82",
"t. c #50B48C",
"y. c #54B88F",
"u. c #57B891",
"i. c #74AC8B",
"p. c #61BB96",
"a. c #65BC99",
"s. c #6ABE9B",
"d. c #74BB9B",
"f. c #7BBA9E",
"g. c #74BEA0",
"h. c #7DBEA4",
"j. c #6DC09F",
"k. c #6FC1A1",
"l. c #73C2A3",
"z. c #79C4A7",
"x. c #7CC4A9",
"c. c #91988C",
"v. c #A98D8B",
"b. c #AD9592",
"n. c #8BAF91",
"m. c #85B999",
"M. c #ACAA8D",
"N. c #AE96A5",
"B. c #88BCA8",
"V. c #B3A3A4",
"C. c #C78C97",
"Z. c #D38597",
"A. c #E78698",
"S. c #F48898",
"D. c #CCBD95",
"F. c #C49AAD",
"G. c #DA96A9",
"H. c #EA9AAB",
"J. c #EB9EAF",
"K. c #C1A2A8",
"L. c #F5AFBC",
"P. c #81C5AB",
"I. c #86C5AE",
"U. c #91C4AC",
"Y. c #8DCAB3",
"T. c #8FCEB8",
"R. c #9BC4B9",
"E. c #D5C89B",
"W. c #ADB6CB",
"Q. c #BBB6CC",
"!. c #B1BDD4",
"~. c #C5B8CF",
"^. c #F0BAC6",
"/. c #A2CAC7",
"(. c #A7D5CA",
"). c #B9C3D8",
"_. c #BAC5DB",
"`. c #B7D4D9",
"'. c #BCC9E3",
"]. c #CDC9D4",
"[. c #C4C9DC",
"{. c #E6C6D2",
"}. c #F8CBD3",
"|. c #C3E3DB",
" X c #C3CEE3",
".X c #C2CEEB",
"XX c #C8D3E6",
"oX c #C6D2EE",
"OX c #CAD5EB",
"+X c #CFDAEC",
"@X c #D2DDEE",
"#X c #CBD9F6",
"$X c #CDDAF4",
"%X c #D2DEF3",
"&X c #D1DEFA",
"*X c #E6D8E7",
"=X c #D3E5E8",
"-X c #D5E1F3",
";X c #D9E4F6",
":X c #D5E1FC",
">X c #DBE6FC",
",X c #DEE8FD",
"<X c #FCEBEF",
"1X c #E9E8F6",
"2X c #E2EDFE",
"3X c #F7EEF2",
"4X c #E6F0FF",
"5X c #EBF5FF",
"6X c #EEF9FF",
"7X c #FFF7F9",
"8X c #F3FDFF",
"9X c #FEFFFF",
/* pixels */
"k.k.k.k.k.k.k.l.z.z.l.k.k.k.k.k.k.k.k.k.k.l.z.z.l.k.k.k.k.k.k.k.k.k.k.k.k.l.z.z.l.k.k.k.s.s.k.k.k.k.",
"k.k.k.k.k.k.k.z.Y.Y.z.k.k.k.k.k.k.k.k.k.k.z.Y.Y.z.k.k.k.k.k.k.k.k.k.k.k.k.z.Y.Y.z.k.k.s.y.y.s.k.k.k.",
"k.k.k.k.k.k.k.z.Y.Y.z.k.k.k.k.k.p.a.s.k.k.z.Y.Y.z.k.k.k.k.k.k.k.k.k.k.k.k.z.Y.Y.z.k.k.s.y.y.s.s.u.s.",
"k.k.k.k.k.k.k.l.z.z.l.k.k.k.k.p.e.e.u.k.k.k.z.z.l.k.k.k.k.k.k.k.k.k.k.k.k.l.z.z.l.k.k.s.a.s.k.p.e.e.",
"k.k.k.k.k.k.k.k.k.k.k.k.k.k.l.u.e.e.u.k.s.s.j.j.k.j.j.j.k.k.k.k.k.k.k.k.k.k.k.k.k.k.k.k.k.k.k.p.e.e.",
"k.k.k.k.k.k.k.k.k.k.k.k.k.k.k.k.p.p.k.s.y.y.j.k.k.j.j.d.k.k.k.k.k.k.k.k.k.k.k.k.k.k.k.k.k.k.k.k.s.u.",
"l.k.k.k.k.k.k.k.k.k.k.k.k.k.k.k.l.k.k.k.y.u.l.P.I.I.z.P.P.P.l.k.k.k.k.k.k.k.k.k.k.k.k.l.z.z.l.k.k.k.",
"z.k.k.k.k.k.k.k.k.k.k.k.k.k.k.k.k.k.k.x.(.|.=X^.L.J.S.A.C.V.R.k.k.k.k.k.k.k.k.k.k.k.k.z.Y.Y.z.k.k.k.",
"z.l.z.z.l.k.k.k.k.k.k.k.k.k.k.l.z.T.XX3X^.{ P A N N N A P Y } G.Y.z.l.s.l.k.k.k.k.k.k.z.Y.Y.z.l.z.z.",
"l.z.Y.Y.z.k.k.k.k.k.k.k.k.k.k.I.].J. .Y P N z l l d l z P Y Y Y } K.x.l.k.k.k.k.k.k.k.l.z.z.l.z.Y.Y.",
"k.z.Y.Y.z.l.k.k.k.k.k.k.g.k.P.G.} I L M z l l d d d A }.7X9X<X}.[ [ Z.B.k.k.k.k.k.k.k.k.k.k.k.z.Y.Y.",
"k.l.z.z.l.k.k.k.k.k.k.k.g.B.Z.[ L C M z k l d d d S.7X9X9X9X9X9X8X}.S.q.B.g.k.k.k.k.k.k.k.k.k.l.z.z.",
"k.k.k.k.k.k.k.k.k.j.j.j.B.Z.' L m c z z z d d l w.9X9X9X9X9X9X9X9X9X7XS.q.h.k.j.s.s.k.k.k.k.k.k.k.k.",
"k.k.k.k.k.k.k.k.k.s.y.u.b.' L m c c j c n b z U 7X9X9X9X9X9X9X9X9X9X8X8XJ.C.l.j.y.y.a.k.k.k.k.k.k.k.",
"k.k.k.k.k.k.k.k.k.s.y.R.*X*XH.m c c c n n n b S.9X9X9X9X9X9X9X9X9X9X8X8X3Xw.V.u.y.y.s.k.k.k.k.k.k.k.",
"k.k.k.k.k.k.k.k.k.j.s.-X4X5X1XU x c m C A M n 7X9X9X9X9X9X9X9X9X9X9X9X6X5X{.| h.s.s.k.k.k.k.k.k.k.k.",
"j.j.j.j.k.k.k.l.z.z.(.>X2X4X4X^.x v V Z Z C n 9X9X9X9X9X9X9X9X9X9X9X8X8X6X5X| V.d.k.k.k.k.k.k.k.k.k.",
"j.j.j.j.k.k.k.z.Y.Y.>X>X2X2X4X*XZ v V Z V C v 9X8X8X8X9X9X9X9X9X8X8X8X6X5X4XH.| P.g.k.k.k.k.k.k.k.k.",
"j.j.u.j.j.j.j.z.Y.(.>X>X>X2X2X1XI h V V v v x {.8X8X8X8X8X8X6X8X6X6X5X5X4X2XG.` V.k.k.k.k.k.k.k.k.k.",
"j.u.e.e.j.k.j.j.x.(.>X:X:X>X2X2XK h h h x x a } 5X6X5X5X5X5X5X5X5X4X4X2X2X>XG.B v.g.k.k.k.k.k.k.k.k.",
"j.j.e.e.u.j.j.j.g.`.-X&X&X&X2X2XK f f f f s a V 1X4X4X4X4X4X4X,X2X2X;X1X%X%XZ.B _ d.k.k.k.k.k.k.k.k.",
"j.j.p.u.j.j.t.y.l.XX-X&X&X&X&X>XJ f s s a a a a G.,X,X,X,X>X>X;X-X-X@X@X%X$X] g ] d.k.k.k.k.k.k.k.k.",
"l.j.j.j.j.j.y.y.l.-X$X$X#X&X&X&XJ p p p p i p i g ].-X-X-X$X@X+X@X@XXX+X+X~.9 g ] f.s.l.z.z.l.k.k.k.",
"z.l.j.j.j.j.j.j.x.@X$X$XoX#X#X#XB 4 p p i i i 3 i J [.OXOXXXXXXX[.XX[.[.~.u 6 q E d.l.z.Y.Y.z.k.k.k.",
"z.l.z.z.l.k.k.j.g.@XOXOXoXoX#X_.9 4 i 3 3 3 3 2 2 2 u ~.[._.[._.).).).).u 1 5 q ) f.k.z.Y.Y.z.l.z.z.",
"l.z.Y.Y.z.k.j.j.u.$XoXoX.X.X'.F.2 2 2 2 2 2 2 2 < < < 0 _ N.W.W.W.N.0.e * 1 ; u ( l.k.l.z.z.l.z.Y.Y.",
"l.z.Y.Y.z.k.j.u.t.`.XX X'.'.'.u 2 < < , , < , , , * * * * = ; ; - = = $ = ; 8 H i.d.k.k.k.k.k.z.Y.Y.",
"k.l.z.z.l.k.j.j.a./. X_.'.'.Q.0 , , , * * * * & & & $ $ # $ # # # % - - : w H ( g.s.k.k.k.k.k.l.z.z.",
"k.k.k.k.k.k.k.k.l./.'._.!.!.0., , * * & & $ $ $ # # # # # % : 7 w r t t t T ( g.s.s.s.l.k.k.k.k.k.k.",
"k.k.k.k.k.k.k.k.k.h.).).!.N.0 * & & & $ # # # # # % : r S F G G W F W R ^ c.g.a.y.y.s.k.k.k.k.k.k.k.",
"k.k.k.k.k.k.k.k.g.a.v.N.0.8 = & $ $ $ # # # % : r F W W ~ o.+.@.+.@ *.v.s.s.k.s.y.y.s.k.k.k.k.k.k.k.",
"k.k.k.k.k.k.k.k.g.s.s.) y e > ; - - - : r S F Q ! O.o./ %.3.6.8.3.M.7.D.k.g.l.s.s.s.s.k.k.k.k.k.k.k.",
"k.k.k.k.k.k.k.l.z.z.l.m.-.T H H t t D F Q ~ O.+.&.*.>.@ / 6.9.9.3.. 4.E.k.l.z.z.l.k.k.j.s.s.j.j.k.k.",
"k.k.k.k.k.k.k.z.Y.Y.z.k.s.m.c.v.( ~ ~ o.+.=.=.=.>.3.5.O X 6.9.9.2.  >.E.k.z.Y.Y.z.k.k.s.y.y.s.k.k.k.",
"k.k.k.k.k.k.k.z.Y.Y.z.k.k.g.s.s.i.:.*.=.:.>.>.1.3.5.7.+ X 6.8.6.<.X 5.m.k.z.Y.Y.z.k.k.s.y.y.s.j.p.p.",
"k.k.k.k.k.k.k.l.z.z.l.k.k.l.l.u.r.M.>.<.>.:.:.:.1.1.2.! o 2.2.2.2.:.5.P.k.l.x.x.l.k.k.j.s.s.j.p.e.e.",
"k.k.k.k.k.k.k.k.k.k.k.k.k.k.k.u.e.p.,.:.:.:.$.:.$.#.$.$.$.$.#.#.#.:.n.l.k.k.k.k.k.k.k.k.j.k.k.p.e.e.",
"k.k.k.k.k.k.k.k.k.k.k.k.k.k.l.k.p.u.l.,.+.+.+.+.+.+.X.X.X.X.....O.n.k.k.k.k.k.k.k.k.k.k.j.k.k.j.p.p.",
"l.k.k.k.k.k.k.k.k.k.k.k.k.k.k.k.k.k.j.j.i.;.;.&.O.O.o.o.&.%.;.n.z.k.k.k.k.k.k.k.k.k.k.l.z.z.l.k.k.k.",
"z.k.k.k.k.k.k.k.k.k.k.k.k.k.k.k.k.k.j.j.j.j.s.d.d.d.d.f.U.Y.z.k.k.k.k.k.k.k.k.k.k.k.k.z.Y.Y.z.k.k.k.",
"z.k.z.z.l.k.k.k.k.k.k.k.k.k.k.l.z.z.l.k.k.s.s.p.k.k.k.z.Y.Y.z.l.z.z.l.k.k.k.k.k.k.k.k.z.Y.Y.z.l.z.z.",
"l.z.Y.Y.z.k.k.k.k.k.k.k.k.k.k.x.Y.Y.z.k.l.u.e.e.u.k.k.l.z.z.l.z.Y.Y.z.k.k.k.k.k.k.k.k.l.z.z.l.z.Y.Y.",
"k.z.T.Y.z.k.k.k.k.k.k.k.k.k.k.z.Y.Y.z.k.l.u.e.e.s.k.k.k.k.k.k.z.Y.Y.z.k.k.k.k.k.k.k.k.k.k.k.k.z.Y.Y.",
"k.l.z.z.l.k.k.k.k.k.k.k.k.k.k.l.z.z.l.k.k.k.s.u.s.k.k.k.k.k.k.l.z.z.l.k.k.k.k.j.k.k.k.k.k.k.k.l.z.z.",
"k.k.k.k.k.k.k.k.k.k.s.s.k.k.k.k.k.k.k.k.k.k.k.j.s.s.k.k.k.k.k.k.k.k.k.k.k.k.k.j.s.s.j.k.k.k.k.k.k.k.",
"k.k.k.k.k.k.k.k.k.a.y.y.a.k.k.k.k.k.k.k.k.k.k.s.y.y.s.k.k.k.k.k.k.k.k.k.k.k.k.s.y.y.s.k.k.k.k.k.k.k.",
"k.k.k.k.k.k.k.k.k.a.y.y.s.k.k.k.k.k.k.k.k.k.k.s.y.y.s.k.k.k.k.k.k.k.k.k.k.k.j.s.y.y.s.k.k.k.k.k.k.k.",
"k.k.k.k.k.k.k.k.k.k.s.a.k.k.k.k.k.k.k.k.k.k.k.j.s.s.s.k.k.k.k.k.k.k.k.k.k.k.j.j.s.s.j.k.k.k.k.k.k.k.",
"k.k.k.k.k.k.k.l.z.z.l.k.k.k.k.k.k.k.k.k.k.l.z.z.l.k.k.j.s.s.s.k.k.k.k.k.k.l.z.z.l.k.k.k.k.k.k.k.k.k.",
"a.k.k.k.k.k.k.z.Y.Y.z.k.k.k.k.k.k.k.k.k.k.z.Y.T.z.k.k.s.y.y.s.k.k.k.k.k.k.z.Y.Y.z.k.k.k.k.k.k.k.k.k."
};
