/* XPM */
static char *xpm_[] = {
/* columns rows colors chars-per-pixel */
"50 50 90 1 ",
"  c #2D3330",
". c #303633",
"X c #353535",
"o c gray21",
"O c #363938",
"+ c #373938",
"@ c #343B38",
"# c gray23",
"$ c #3E4241",
"% c #444444",
"& c #454746",
"* c #454948",
"= c #4A4F4D",
"- c #4E4E4E",
"; c #4C504E",
": c #4D5150",
"> c #4F5251",
", c #4F5553",
"< c #545957",
"1 c gray36",
"2 c #5F6362",
"3 c #676767",
"4 c #636A67",
"5 c #6B716F",
"6 c #6B7672",
"7 c #6E7773",
"8 c gray44",
"9 c #717573",
"0 c #737775",
"q c #777777",
"w c #757B79",
"e c #7A7E7D",
"r c #7C7C7C",
"t c #7C7E7D",
"y c #568D77",
"u c #7C807E",
"i c #3FAE80",
"p c #40AF81",
"a c #54B88F",
"s c #55B88F",
"d c #61BB96",
"f c #68BD99",
"g c #69BE9A",
"h c #6DBE9E",
"j c #6CBF9E",
"k c #6EBE9F",
"l c #78B79C",
"z c #6EBFA0",
"x c #6DC09F",
"c c #6EC09F",
"v c #6FC0A0",
"b c #6FC0A1",
"n c #6FC1A1",
"m c #70C1A1",
"M c #73C1A2",
"N c #73C1A3",
"B c #73C2A3",
"V c #79C3A6",
"C c #79C4A7",
"Z c #818584",
"A c #808784",
"S c gray53",
"D c #868A88",
"F c #878D8B",
"G c #888B8A",
"H c #8C8F8E",
"J c #8C908E",
"K c #8E9391",
"L c #919392",
"P c #949796",
"I c #949896",
"U c #959897",
"Y c #979A99",
"T c #959D9A",
"R c #9CA4A1",
"E c #A6A9A8",
"W c #A8B3AF",
"Q c #A7B6B0",
"! c #B1B5B3",
"~ c #B7BBBA",
"^ c #B8BBBA",
"/ c #8CC9B2",
"( c #8DC9B3",
") c #8DCAB3",
"_ c #BDC2C0",
"` c #BDC8C4",
"' c #C5C9C8",
"] c #CCCFCE",
"[ c #CBD0CE",
"{ c #CED1D0",
/* pixels */
"nnnnnnnBCCBnnnnnnnnnnBCCBnnnnnnnnnnnnBCCBnnxggxnnn",
"nnnnnnnC))CnnnnnnnnnnC))CnnnnnnnnnnnnC))Cnngaagnnn",
"nnnnnnnC))CnnnnjddjnnC))CnnnnnnnnnnnnC))Cnngaagjdd",
"nnnnnnnBCCBnnnndiidnnBCCBnnnnnnnnnnnnBCCBnnxggxdii",
"nnnnnnnnnnnnnnndiidxfgxnnnnnnnnnnnnnnnnnnnnnnnndpp",
"nnnnnnnnnnnnnnnjddngaagnnnnnnnnnnnnnnnnnnnnnnnnhdd",
"BnnnnnnnnnnnnnnnnnngaagnnnnBCCBnnnnnnnnnnnnBCCBnnn",
"CnnnnnnnnnnnnnnnnnnnggxnnnnC))CnnnnnnnnnnnnC))Cnnn",
"CBCCBnnnnnnnnnnBCCBnBhddxnnC//CBCCBnnnnnnnnV))CNCC",
"BC))CnnnnnnnnnnV))CnndppdnnBCCBC))CnnnnnnnnBCCNC))",
"nC))CnnnnnnnnnnV))CnndppdnnnnnnC))CnnnnnnnnnzBnV))",
"nBCCBnnnnnnnnnnBCCBnnjddxnnnnnnBCCBnnnnnnnnnnnnNCC",
"nnnnnnnnnxgghnNBnnnBnnnhgghnnnnBBBxnhnxxzfxxnnnnnn",
"nnnnnnnnngssgnzhQ_'']~YDeeDPE''{[`Bxnnxfaaxnnnnnnn",
"nnnnnnnnngssgWPLSretrrrrrrrrrrerrSJPWBxxaafxnnnnnn",
"nnnnnnnnnhR^ettrrrrrrrrrrrrrrrrrrrrrtu~!lxxxnnnnnn",
"nnnnhBBzLSrrrrrrrrrrrrrrrrrrrrrrrrrrrrrrSRhNnnnnnn",
"gnnnnzTqrrrrrrrrrrrrrt831138qrrrrrrrrrrrrrtRnnnnnn",
"gnddherrrrrrrrrqq#XXooXXXXXooooo#8rtrrrrrrrrANBknn",
"ndpyAtrrrrrq1-oXXXoXXXXXXXXXXXXXXXXo-1qrrrrrrDNNnn",
"ndilrrrrq8#XXXXXXXXXXXXXXXXXXXXXXXXXXXX#8qrrrrAknn",
"ngl8rrr-%XXXXXXXXXXXXXXXXXXXXXXXXXXXXXXXo#-rrrtGnn",
"ll88r8%XXXXXXXXXXXXXXXXXXXXXXXXXXXXXXXXXXoX%8rrrnn",
")Hrq3XXXXXXXXXXXXXXXXXXXXXXXXXXXXXXXXXXXXXXXo3rrFn",
"lPr8XXXXXXXXXXXXXXXXXXXXXXXXXXXXXXXXXXXXXXXXXo8tJC",
"NP1XXXXXXXXXXXXXXXXXXXXXXXXXXXXXXXXXXXXXXXXXXoX3H)",
"zl XXXXXXXXXXXXXXXXXXXXXXXXXXXXXXXXXXXXXXXXXXXo#0)",
"BBXXXXXXXXXXXXXXXXXXXXXXXXXXXXXXXXXXXXXXXXXXXXXXVC",
"zz2oXXXXXXXXXXXXXXXXXXXXXXXXXXXXXXXXXXXXXXXXXXX>nn",
"Nzk-XXXXXXXXXXXXXXXXXXXXXXXXXXXXXXXXXXXXXXXXXX&hnn",
"Nbzz1oXXXXXXXXXXXXXXXXXXXXXXXXXXXXXXXXXXXXXXX=znnn",
"bbkll#XXXXXXXXXXXXXXXXXXXXXXXXXXXXXXXXXXXXX#$nnnnn",
"bbnnnn6XXXoXXXXXXXXXXXXXXXXXXXXXXXXXXXXXXXO5gghnnn",
"bbnnnnnC2&XXXXXXXXXXXXXXXXXXXXXXXXXXX.XX&4hgssgnnn",
"nnnnnnbC))67O#XXXoXXXoXXXXXXXX XooXXX#9wCnMgaagxdd",
"nnnnnnnBCCNhhh,;;OOOOOXXXXXXXO##O>;*hBVCMhBjggxdpi",
"nnnnnnnnnnnnnnndiidhgfyO. oxBxnhxnhBhnnnnnnnnnndii",
"nnnnnnnnnnnnnnnhddxfaagnnxxnnnnnnBnnnnnnnnnnnnnjdd",
"BnnnnnnnnnnnnnnnnnngaagnBnnBCCBnnnnnnnnnnnnBCCBnnn",
"CbnnnnnnnnnnnnnnnnnxggnnxnnC))CnnnnnnnnnnnnC))Cnnn",
"CBCCBnnnnnnnnnnNCCBnnxddxnnC))CBCCBnnnnnnnnC))CBCC",
"BC))CnnnnnnnnnnC))CnndiidnnBCCBC))CnnnnnnnnBCCBC))",
"nC))CnnnnnnnnnnC))CnndiidnnnnnnC))CnnnnnnnnnnnnC))",
"nBCCBnnnnnnnnnnNCCBnnjddjnnnnnnBCCBnnnnnnnnnnnnBCC",
"nnnnnnnnnxggnnnnnnnnnnnxfgxnnnnnnnnnnnnxggxnnnnnnn",
"nnnnnnnnngaafnnnnnnnnnngaagnnnnnnnnnnnngaagnnnnnnn",
"nnnnnnnnngaagnnnnnnnnnngaagnnnnnnnnnnnngaagnnnnnnn",
"nnnnnnnnnxggxnnnnnnnnnnxggxnnnnnnnnnnnnxggxnnnnnnn",
"xnnnnnnBCCBnnnnnnnnnnBCCBnnxggxnnnnnnBCCBnnnnnnnnn",
"gnnnnnnC))CnnnnnnnnnnC))CnngaagnnnnnnC))Cnnnnnnnnn"
};
