/* XPM */
static char *c9792e1652514b0fb61220b031937deeFXWti4GIGXdw9sXo[] = {
/* columns rows colors chars-per-pixel */
"50 50 172 2 ",
"   c #160F07",
".  c #14110B",
"X  c #18100B",
"o  c #1E1A15",
"O  c #1D1719",
"+  c #1C1B1A",
"@  c #211A17",
"#  c #221E1B",
"$  c #1F201A",
"%  c #25221D",
"&  c #272523",
"*  c #2A2724",
"=  c #2F2B28",
"-  c #322A27",
";  c #312D2B",
":  c #35312E",
">  c #3C322B",
",  c #353330",
"<  c #3A3734",
"1  c #3B3934",
"2  c #383738",
"3  c #3F3B38",
"4  c #403B37",
"5  c #423E3B",
"6  c #3E4638",
"7  c #44413D",
"8  c #504439",
"9  c #4F503E",
"0  c #454340",
"q  c #4C4340",
"w  c #4F4B48",
"e  c #524B43",
"r  c #57524A",
"t  c #5D544C",
"y  c #4C5151",
"u  c #605B53",
"i  c #5B664D",
"p  c #6E665E",
"a  c #666060",
"s  c #746F6A",
"d  c #7F7872",
"f  c #897977",
"g  c #599379",
"h  c #86807F",
"j  c #93847B",
"k  c #998B7D",
"l  c #42AE80",
"z  c #55B78E",
"x  c #65A48B",
"c  c #61BA95",
"v  c #66BC98",
"b  c #6BBE9B",
"n  c #75C09E",
"m  c #6FC0A0",
"M  c #72C1A2",
"N  c #78C3A6",
"B  c #7FC5A9",
"V  c #8C8482",
"C  c #9C8D83",
"Z  c #8A9E8C",
"A  c #979086",
"S  c #9B918C",
"D  c #9F9D93",
"F  c #A09083",
"G  c #A19888",
"H  c #A99B8E",
"J  c #A79C96",
"K  c #AE9E93",
"L  c #A59F98",
"P  c #B19D94",
"I  c #96A697",
"U  c #A2A097",
"Y  c #A5A499",
"T  c #AFA89C",
"R  c #B3A294",
"E  c #B5A69C",
"W  c #B2A89C",
"Q  c #B9AA9D",
"!  c #BEB29F",
"~  c #8ABFA8",
"^  c #B7ABA7",
"/  c #BAADA3",
"(  c #A8B7AA",
")  c #B6B4A7",
"_  c #BDB3A4",
"`  c #BCB3AD",
"'  c #B9B5AE",
"]  c #BDB2B1",
"[  c #B4B8B3",
"{  c #B8BAB6",
"}  c #BFBAB4",
"|  c #C4B6A7",
" . c #C8B7A5",
".. c #C4B6AA",
"X. c #C5BAAC",
"o. c #C9BBAD",
"O. c #C4BBB3",
"+. c #CABEB3",
"@. c #C7BFBD",
"#. c #C8BFB8",
"$. c #84C6AB",
"%. c #8BC4AC",
"&. c #8FC8AF",
"*. c #96C5AE",
"=. c #8CC9B2",
"-. c #9CCDB9",
";. c #9AD1B9",
":. c #A2CBB9",
">. c #A8CDBF",
",. c #B4C6BC",
"<. c #CDC0AF",
"1. c #CBC2B4",
"2. c #C6C2BD",
"3. c #CDC4BB",
"4. c #CEC9BF",
"5. c #D2C3B3",
"6. c #D1C6BA",
"7. c #D4CABD",
"8. c #D8CDBF",
"9. c #C3BFC1",
"0. c #B6CBC2",
"q. c #A3D4C1",
"w. c #ACD5C5",
"e. c #B2D7C3",
"r. c #C6C7C4",
"t. c #CEC6C1",
"y. c #CDC9C4",
"u. c #D1C7C3",
"i. c #D4CCC3",
"p. c #D9CDC3",
"a. c #D5CDCA",
"s. c #D9CECE",
"d. c #D5D0C4",
"f. c #DBD2C5",
"g. c #D6D2CD",
"h. c #DBD3CB",
"j. c #DFD8CD",
"k. c #CEDED6",
"l. c #DDD5D2",
"z. c #DCD9D3",
"x. c #E1D5C7",
"c. c #E1D5CD",
"v. c #E1D9CE",
"b. c #E0D5D0",
"n. c #E3DBD4",
"m. c #E9DFD6",
"M. c #E4DDDA",
"N. c #E8DFDB",
"B. c #D8EADE",
"V. c #E7E2D7",
"C. c #EAE2D7",
"Z. c #E5E1DC",
"A. c #EBE3DC",
"S. c #E5E6E3",
"D. c #EBE5E3",
"F. c #EEEAE5",
"G. c #EFECE9",
"H. c #F0E7E0",
"J. c #F1E9E5",
"K. c #F4EDEA",
"L. c #F8EEEC",
"P. c #F3F0E7",
"I. c #F3F0EB",
"U. c #F4F1EC",
"Y. c #F8F2EE",
"T. c #F7F6F2",
"R. c #FAF5F2",
"E. c #F4F8F5",
"W. c #FAF9F5",
"Q. c #FBF9F5",
"!. c #FDFCFA",
"~. c #FFFEFD",
/* pixels */
"m m m m m m m M N N M m m m m m m m m m m M N N M m m m m m M m m m m m m M N N M m m b b b b m m m ",
"m m m m m m m N =.=.N m m m m m m m m m m N =.=.N m m m m m m m m m m m m N =.=.N m m b z z b m m m ",
"m m m m m m m N =.=.N m m m m b c c b m m B -.:.$.m m m m m m m m m m m m N =.=.N m m b z z b b c c ",
"m m m m m m m M N N M m m m m c l l c ( | <.5.5.5.+.3.B m m m m m m m m m M N N M m m b b b b c l l ",
"m m m m m m m m m m m m m m m c l z ` ..1.6.7.7.7.7.1.1.` m m m m m m m m m m m m m m m m m m c l l ",
"m m m m m m m m m m m m m m m b n Q X.1.6.8.f.f.f.p.7.6.5.O.m m m m m m m m m m m m m m m m m b c c ",
"M m m m m m m m m m m m m m m m T ! +.p.n.m.A.C.n.x.f.3.<.X.,.m m m m m m m m m m m m M N N M m m m ",
"N m m m m m m m m m m m m m m J Q | 3.M.Y.W.W.K.A.n.f.7.o.X.O.M m m m m m m m m m m m N =.=.N m m m ",
"N M N N M m m m m m m m m m m K _ o.j.W.~.~.~.W.K.C.v.p.1._ O.E.N N M m m m m m m m m N =.=.N M N N ",
"M N =.=.N m m m m m m m m m Z R | 7.D.~.~.~.~.!.L.A.n.h.o. .E T.=.=.N m m m m m m m m M N N M N =.=.",
"m N =.=.N m m m m m m m m m k R X.p.J.~.~.~.~.!.K.H.C.i.f. .R h.=.=.N m m m m m m m m m m m m N =.=.",
"m M N N M m m m m m m m m m k E X.8.H.!.~.~.~.T.J.A.H.n.p.o.R ` -.N M m m m m m m m m m m m m M N N ",
"m m m m m m m m m b b b b m F E X.7.C.U.~.!.W.K.J.H.n.n.7.o.R ` q.m m m m m m b b b b m m m m m m m ",
"m m m m m m m m m b z z b m C R ..1.h.A.P.U.Y.K.J.A.m.h.7.| R O.q.m m m m m m b z z b m m m m m m m ",
"m m m m m m m m m b z z b m C R / +.i.m.F.K.L.Y.K.J.C.c.6...R 3.=.m m m m m m b z z b m m m m m m m ",
"m m m m m m m m m b b b b m I j 8 >   9 i 1 R.W.R.R.A.n.7...Q 3.N m m m m m m b b b b m m m m m m m ",
"b m m m m m m M N N M m m m m H W ..3.U 6 F.I.Y.I.J.D.m.i.#.O.i.m m m m m M N N M m m m m m m m m m ",
"b m m m m m m N =.=.N m m m m Y ^ ..3.i.M.F.F.F.F.F.Z.n.g.g.M.l.m m m m m N =.=.N m m m m m m m m m ",
"b b c c b m m N =.=.N m m m m m a.@.` u.h.n.N.A.N.V.n.l.a.i.R.2 c c b m m N =.=.N m m m m m m m m m ",
"b c l l c m m M N N M m m m m m m S.` O.u.g.l.n.l.h.n.f.6./ . y l l c m m M N N M m m m m m m m m m ",
"m c l l c b b b b m m m m m m m m m :.` 3.a.s.p.p.3.p.u._ o + b g z c b b b b m m m m m m m m m m m ",
"m b c c b b z z b m m m m m m m m m m M } 3.g.7.X.O.p.O.O $ r @ 3.6.*.b z z b m m m m m m m m m m m ",
"M m m m m b z z b m m m m m m m m m m m m m N ~ t I.# o % f E & !.M...b z z b m m m m M N N M m m m ",
"N m m m m b b b b m m m m m m M m m m m m m m g.o g.S j P d.O.* F.F.f.&.b b b m m m m N =.=.N m m m ",
"N M N N M m m b c c b x , = r < X 3.u.i.3.e.u G D 3.3.p.D.!.M.o ` R.C.o.m b c c b m m N =.=.N M N N ",
"M N =.=.N m m c l l c m m # : 7 e | O.+.X.E t / 1.3.f.A.!.~.N.p o F.W.f.i.c l l c m m M N N M N =.=.",
"m N =.=.N m m c l l c m m < ; % z.1.#.` 7.1.h._ 7.i.h.R.W.!.V.i.X.m.^ i.1.) l l c m m m m m m N =.=.",
"m M N N M m m b c c b m m < * % u.1.#.1.O.#.h.` d * ; < , !.A.f.1.7.c.f.X.j c c b m m m m m m M N N ",
"m m m m m m m m m b b b b m M r.a.t.2.3.y.l.l.B.- ; * : 4 : D.f.1.v.v.f.o.y.m b b b b m m m m m m m ",
"m m m m m m m m m b z z b m m m m M =.-.%.m m M h.g.T.~.R.l.u.i.1.A.n.p...F.m b z z b m m m m m m m ",
"m m m m m m m m m b z z b m m m m m m m m m m &.f.u.!.~.R.n.h.h.f.U.C.p.Q } m b z z b m m m m m m m ",
"m m m m m m m m m b b b b m m m m m m m m m m ;.1.t.!.~.R.M.M.h.V.!.A.f.Q *.m b b b b m m m m m m m ",
"m m m m m m m M N N M m m m m m m m m m m M N g.| i.!.~.I.M.A.b.z.!.A.j.K M N N M m m b b b b m m m ",
"m m m m m m m N =.=.N m m m m m m m m m m N =.R.3.2.Z.F.D.d.` # D.!.m.3./ N =.=.N m m b z z b m m m ",
"m m m m m m m N =.=.N m m m m b c c b m m N =.{ Z.z.Z.Z.n.d.o = w T.n.O.:.N =.=.N m m b z z b b c c ",
"m m m m m m m M N N M m m m m c l l c m m M N [ R.l.l.h.i.@ * < * : j.O.m M N N M m m b b b b c l l ",
"m m m m m m m m m m m m m m m c l l c b b b b N J i.7.4.A 1 K.* : 4 % %.m m m m m m m m m m m c l l ",
"m m m m m m m m m m m m m m m b c c b b z z b N n.E > ) 3.S.T.: % & 3 M m m m m m m m m m m m b c c ",
"M m m m m m m m m m m m m m m m m m m b z z b N q F.y.` k.M.G.5 7 4 0 m m m m m m m m M N N M m m m ",
"N m m m m m m m m m m m m m m m m m m b b b b >.K.l.a.g.q.4 J.l.h $.m m m m m m m m m N =.=.N m m m ",
"N M N N M m m m m m m m m m m M N N M m m b v + y.a.a.t.q.M.J.u.` 0.M m m m m m m m m N =.=.N M N N ",
"M N =.=.N m m m m m m m m m m N =.=.N m m c M.g.l.t.s.n.9.M.Y.g.i.w.N m m m m m m m m M N N M N =.=.",
"m N =.=.N m m m m m m m m m m N =.=.N m m r.z.g.a.a.i.Z.D.g.a.u.^ w.N m m m m m m m m m m m m N =.=.",
"m M N N M m m m m m m m m m m M N N M m ' !.a.a.l.t.L s W.M.a.y.s.0.M m m m m m m m m m m m m M N N ",
"m m m m m m m m m b b b b m m m m m m m [ V f S ` @.] [ g.!.a.] s.$.m m m m m b b b b m m m m m m m ",
"m m m m m m m m m b z z b m m m m m m m m m m b z z b m a ; & 0 ,.m m m m m m b z z b m m m m m m m ",
"m m m m m m m m m b z z b m m m m m m m m m m b z z b m m m m m m m m m m m m b z z b m m m m m m m ",
"m m m m m m m m m b b b b m m m m m m m m m m b b b b m m m m m m m m m m m m b b b b m m m m m m m ",
"b m m m m m m M N N M m m m m m m m m m m M N N M m m b b b b m m m m m m M N N M m m m m m m m m m ",
"b m m m m m m N =.=.N m m m m m m m m m m N =.=.N m m b z z b m m m m m m N =.=.N m m m m m m m m m "
};
