/* XPM */
static char *xpm_[] = {
/* columns rows colors chars-per-pixel */
"50 50 186 2 ",
"   c #1F1A17",
".  c #221D1B",
"X  c #24201D",
"o  c #292521",
"O  c #2C2926",
"+  c #302C28",
"@  c #2F312C",
"#  c #35332E",
"$  c #3C3835",
"%  c #423F3C",
"&  c #46413E",
"*  c #484641",
"=  c #434943",
"-  c #4C4A44",
";  c #43514A",
":  c #54524D",
">  c #5A5752",
",  c #525853",
"<  c #5D5B55",
"1  c #615F59",
"2  c #496B5A",
"3  c #65635F",
"4  c #527263",
"5  c #597265",
"6  c #5E7C6E",
"7  c #686563",
"8  c #696C65",
"9  c #69756C",
"0  c #75736D",
"q  c #6A7C71",
"w  c #767770",
"e  c #7A7773",
"r  c #757972",
"t  c #7B7B74",
"y  c #807E79",
"u  c #548C73",
"i  c #5C8D78",
"p  c #5D967E",
"a  c #628375",
"s  c #68897A",
"d  c #75877C",
"f  c #83847D",
"g  c #86887A",
"h  c #A0B96F",
"j  c #6D8F81",
"k  c #7C8F83",
"l  c #649580",
"z  c #6E9A86",
"x  c #6E9C89",
"c  c #799789",
"v  c #4FA480",
"b  c #40AF81",
"n  c #47B184",
"m  c #54B58D",
"M  c #54B88F",
"N  c #65A38A",
"B  c #64AB8C",
"V  c #69B08F",
"C  c #6AAC91",
"Z  c #7AA392",
"A  c #62B794",
"S  c #69B697",
"D  c #61BB96",
"F  c #6DB699",
"G  c #6ABE9B",
"H  c #70B196",
"J  c #74B69B",
"K  c #79B59D",
"L  c #71BB9D",
"P  c #79B89E",
"I  c #6EBFA0",
"U  c #75BEA1",
"Y  c #7BBCA1",
"T  c #6DC09F",
"R  c #6FC1A1",
"E  c #73C2A3",
"W  c #79C4A7",
"Q  c #7FC4A8",
"!  c #868982",
"~  c #8A8C84",
"^  c #938F8C",
"/  c #839389",
"(  c #869488",
")  c #8B948B",
"_  c #95968C",
"`  c #8D9C92",
"'  c #949B92",
"]  c #9A9895",
"[  c #9B9C94",
"{  c #84A294",
"}  c #83AB97",
"|  c #83AD99",
" . c #8EAA9B",
".. c #9EA393",
"X. c #94A69A",
"o. c #96A79B",
"O. c #85B69E",
"+. c #8AB29E",
"@. c #ADBD8E",
"#. c #A5AB93",
"$. c #A3A49B",
"%. c #A9AA9D",
"&. c #82B5A0",
"*. c #8DB5A0",
"=. c #82BBA3",
"-. c #8DBAA5",
";. c #94B5A3",
":. c #9DB5A5",
">. c #9EB9A9",
",. c #A5AAA0",
"<. c #ABACA3",
"1. c #ADB0A6",
"2. c #AEB5A8",
"3. c #A7B9AB",
"4. c #B3B8A6",
"5. c #B3B5AB",
"6. c #B5B9AD",
"7. c #B8BAAE",
"8. c #B5B4B2",
"9. c #B9B6B3",
"0. c #B7BBB3",
"q. c #BBBDB2",
"w. c #B8C993",
"e. c #83C4AA",
"r. c #84C6AB",
"t. c #8BC6AC",
"y. c #91C3AE",
"u. c #8DCAB3",
"i. c #95C5B2",
"p. c #9CC6B2",
"a. c #94CBB4",
"s. c #9BCCB6",
"d. c #9ED1BA",
"f. c #BFCAA6",
"g. c #A5C1B1",
"h. c #A5C9B5",
"j. c #ACC6B9",
"k. c #ABCCB9",
"l. c #BEC0B4",
"z. c #BDC6BC",
"x. c #B3CBBC",
"c. c #BACABD",
"v. c #A3D1BC",
"b. c #A8D0BC",
"n. c #C1C3B7",
"m. c #C4C5BB",
"M. c #C6C9BD",
"N. c #C9CBBE",
"B. c #C8D1B2",
"V. c #D2E0B7",
"C. c #ACD5C2",
"Z. c #ACD9C6",
"A. c #B4D5C4",
"S. c #BDD4C6",
"D. c #C6C4C3",
"F. c #C8C7C6",
"G. c #CCCEC3",
"H. c #CFD1C5",
"J. c #C5D3CB",
"K. c #CCD4CB",
"L. c #D0D2C6",
"P. c #D3D5CC",
"I. c #D5D9CE",
"U. c #D8DACE",
"Y. c #C7D9D0",
"T. c #D3D3D2",
"R. c #DADCD3",
"E. c #DBDCD4",
"W. c #DBE0D5",
"Q. c #D3E4D9",
"!. c #DCE2DB",
"~. c #E2E3DC",
"^. c #E4E8DA",
"/. c #E5E6E1",
"(. c #E6E9E3",
"). c #EAEBE5",
"_. c #E5EDE8",
"`. c #EDEEEA",
"'. c #EFF0EB",
"]. c #F1F2ED",
"[. c #F4F4F1",
"{. c #F4F4F2",
"}. c #F8F8F6",
"|. c #FBFBFA",
" X c #FCFDFC",
".X c #FDFDFD",
/* pixels */
"R R R R R R R E W W E R R R R R R R R R R E W W E R R R R R R R R R R R R E W W E R R R T T T T T R ",
"R R R R R R R W u.u.W R R R R R R R R R R W u.u.W R R R R R R R R R R R R W u.u.W R T T M M D T R R ",
"R R R R R R R W u.u.W R R R R T D D T R E W u.u.W R R R R R R R R R R R R W u.u.W R T T M M T T D M ",
"R R R R R R R E W W E R R R R D b b D R E W r.t.r.e.Q W E R R R R R R R R E W W E T T T D T T M p b ",
"R R R R R R R R R R R R R R T D b b D Q t.k.P.R.R.E.E.A.a.Q E R E T R R R R R R R R R R R R R T b b ",
"R R R R R R R R R R R R R R R T D G t.x.H.R.~./.(.(././.E.S.s.W T E R R R R R R R R R R R R R T D D ",
"E R R R R R R R R R R R R R R R T g.M.P.W./.`.].{.{.].'.).~.Y.b.W G R R R R R R R R R E W W E R R R ",
"W R R R R R R R R R R R R R E L p.n.H.E.^.`.{. X X X X}.{.).~.I.a.R R R R R R R R R R W u.u.W R R R ",
"W E W W E R R R R R R R R R T t.l.N.P.~.`.}. X X X X X X X{.(.E.P.y.E E T R R R R R R W u.u.W E W W ",
"E W u.u.W R R R R R R R R R W g.n.L.R./.]. X X X X X X X X|.`.~.I.!.W E R R R R R R R E W W E W u.u.",
"R W u.u.W E R R R R R R R R e.c.m.L.!.).{. X X X X X X X X X]./.U.W.s.T R R R R R R R R R R R W u.u.",
"R E W W E R R R R R R R R T *.6.M.L.E.).}. X X X X X X X X X]./.R.H.h.L R R R R R R R R R R R E W W ",
"R R R R R R R R R R T D T T ;.7.n.L.E.(.]. X X X X X X X X X].^.U.H.j.W T T T T T T T T R R R R R R ",
"R R R R R R R R T T M M T T ;.5.n.L.E.^.].|. X X X X X X X X`.~.I.H.c.W R T T T M M T T R R R R R R ",
"R R R R R R R R R G M M T T *.4.l.N.I.E.W.].|.(.F.T.].|.}.].V.B.#.<.x.E R R T T M M D T R R R R R R ",
"R R R R R R R R R T G G T T +.1.q.%.4.@.B./.{.T.8.F.^.[.[.B.w.d g [ s.E R R T T B V T E R R R R R R ",
"I R R R R R I U Y U E T E T P / %.f d h B.~.).].].{.{.'.).~.N.%.n.q.-.R R E W J 6 l R R R R R R R R ",
"G R R R R R E W ` c U E T E E ( %.5...h H.R.~.~.^.).^.~.E.I.H.N.q.3.W R R J O.; = p R R R R R R R R ",
"G G D D I R R E j , 4 s N T T Y $.1.6.7.N.H.P.R.E.R.R.I.U.N.m.l.6.=.G R E a = . O 2 F R R R R R R R ",
"R D b b D R I G 4 & X O c r.E R o.%.1.7.l.m.N.G.L.L.H.G.N.n.q.5.V b D R +.0 + . X @ i R R R R R R R ",
"R D b b D I G u O .   # 8.].Z.W E o.,.<.5.0.q.n.n.n.n.n.q.7.4.+.b b S } ,.N.e O # 6 L T R R R R R R ",
"R G D D I G M v 2 # # 0 P.].(.C.E E =.1.<.<.1.5.6.6.5.5.1.[  .L D D Z ..l.E.]._ ` J E R R R R R R R ",
"R R R R R G M m N 2 8 ..H.(.{.(.u.E a.K.~ ~ [ ,.%.<._ t r : ` A.s.e.' 6.P.).{.(.A.W R E W W E R R R ",
"W R R R G T G T R l 8 ) 5.P.].].Q.x._.!.< < ! : 3 7 - ~ _ $ [ ]._.' <.G.(.{.).W.s.E R W u.u.W R R R ",
"W E W W E R R R D A i 7 ' q.E.].{.P.^.6.: : t 5.7.7.7.n.K.7 y E.).5.m.~.].].^.h.R R R W u.u.W R W W ",
"E W u.u.W R R D b b A 9 r $.m.!.`.P.q.f - f $.5.%.m.L.E.{.9.1 %.6.H.P.].{.^.r.b D R R E W W E W u.u.",
"R W u.u.E R R D b b D S s ! <.G.m.5.~ q 5 $.<.G.L.P.E.E.].T.9 k ~ 1.K.{.(.b.n n D R R R R R R W u.u.",
"R E W W E R R R D D G R J c { 6./ d z F e.2.%.t e y y t <.E.C.J x a ;.Z.d.E D D R R R R R R R R W W ",
"R R R R R R R R R R R D R F J Y C C U I h.,.> o       . $ f 3.U R D T T R R T T T G T R R R R R R R ",
"R R R R R R R R G G M M G R E R I I R R g.* X ^ m.F.F.F.9.e q Y R R T T R R R G M M G R R R R R R R ",
"R R R R R R R R R G M M R R R R R R R I >.n.P.`.|. X X X).T.S.t.R R R R R R R G M M G T R R R R R R ",
"R R R R R R R R R R G G G R R R R R R e.J.n.H./.}. X X{.~.H.F.v.R R R R R R T T G G T R R R R R R R ",
"R R R R R R R E W W E R R R R R R R R C.0.2.F.R.(.'.`.^.I.m.l.j.U E R R R E W W E R T T T D T T R R ",
"R R R R R R R W u.u.W R R R R R R R G -.2.<.q.H.R.~.~.E.m.m.8.) =.E R R R W u.u.W R T T M M T R R R ",
"R R R R R R R W u.u.W R R R R R D G O.8 ! m.E.(.`.`.).~.I.n.0 1 J.R R R R W u.u.W R R T M M T T M D ",
"R R R R R R R E W W E R R R R D b b *.$.< $.E.~./.).~.~.D.> & 5.).R R R R E W W E R R R T D T D b b ",
"R R R R R R R R R R R R R R R D b b } q.5.> <.H.I.E.I.N.> O $. X`.R R R R R R R R R E T T T R D p n ",
"R R R R R R R R R R R R R R R R D D | 2.L.] * _ l.n.6.3 # ] {.{.Y.R R R R R R R R R T E T T T T M T ",
"E R R R R R R R R R R R R R R R R R K X.l.H.^ e X.:.{ $ ^ W.).~.a.R R R R R R R R R R E W W E R R R ",
"W R R R R R R R R R R R R R R R R U L Z [ 5.0.1.+.U L ~ 5.N.N.c.e.R R R R R R R R R R W u.u.W R R R ",
"W E W W R R R R R R R R R R R R Q W E z f ..5.2.*.I R f < w ] :.e.W E R R R R R R R R W u.u.W E W W ",
"E W u.u.W R R R R R R R R R R W u.u.W | <.H.`._.p.G I ' q.E.`.z.y.u.W R R R R R R R R E W W E W u.u.",
"E W u.u.W R R R R R R R R R R W u.u.J k ~ $.8.D.j.Q J 7 t ~ 8.D.i.u.W R R R R R R R R R R R R W u.u.",
"R E W W E R R R R R R R R R R R W W C / q.{. X}.Y.Q Z _ G.{. X|.a.W E R R R T T R R R R R R R E W W ",
"R R R R R R R R G R D G R R R R R R H ! <.R.(./.j.F B w 1.P.^.E.e.R R R R R R T T T T R R R R R R R ",
"R R R R R R R R R R M M R R R R R R F i : 3 t 9 x m F l / 8 r { E T R R T T R T M M T R R R R R R R ",
"R R R R R R T T R G M M G R R R R R I S B B C B M M G G F V V D R R R R T T T T M M T T R R R R R R ",
"R R R R R R R T R R D R R R R R R R R E I I I G G G R R E T T T R R R R T T T T D T T R R R R R R R ",
"T R R R R R R E W W E R R R R R R R R R R E W W E R R T T T T T R R R R R E W W E E T R R R R R R R ",
"T R R T R R R W u.u.W R R R R R R R R R R W u.u.W R R T M M T T R R R R R W u.u.W R E T R R R R R R "
};
