/* XPM */
static char *xpm_[] = {
/* columns rows colors chars-per-pixel */
"50 50 164 2 ",
"   c #040404",
".  c #060608",
"X  c #070808",
"o  c #0B0C0B",
"O  c #141414",
"+  c #181413",
"@  c #161C16",
"#  c #17161A",
"$  c #161C19",
"%  c #1A1A1A",
"&  c #1F201B",
"*  c #232A27",
"=  c #282826",
"-  c #212E29",
";  c #2A2B2B",
":  c #2D3B34",
">  c #353634",
",  c #393A35",
"<  c #3D3D3D",
"1  c #304125",
"2  c #2E463D",
"3  c #39423F",
"4  c #43423B",
"5  c #3D4C47",
"6  c #434543",
"7  c #474843",
"8  c #4C4E4C",
"9  c #514F44",
"0  c #56534B",
"q  c #545554",
"w  c #585550",
"e  c #506358",
"r  c #687C56",
"t  c #4B7262",
"y  c #5B7064",
"u  c #656565",
"i  c #636A68",
"p  c #68686A",
"a  c #777777",
"s  c #797772",
"d  c #777872",
"f  c #7D7B77",
"g  c #6E945B",
"h  c #82857D",
"j  c #7B8380",
"k  c #6A9483",
"l  c #75998B",
"z  c #40AF81",
"x  c #54B88F",
"c  c #57B991",
"v  c #77AE97",
"b  c #6DB697",
"n  c #61BB96",
"m  c #6ABE9B",
"M  c #72BC9F",
"N  c #6DC09F",
"B  c #6FC1A1",
"V  c #73C2A3",
"C  c #79C4A7",
"Z  c #7CC6A9",
"A  c #7EC8AA",
"S  c #838582",
"D  c #949284",
"F  c #93948C",
"G  c #9A9589",
"H  c #9D9A8E",
"J  c #9A9C92",
"K  c #9D9D9E",
"L  c #A09C8F",
"P  c #A29F93",
"I  c #9EA093",
"U  c #85B89F",
"Y  c #A4A196",
"T  c #A9A297",
"R  c #A5A49A",
"E  c #AAA69D",
"W  c #A6A89B",
"Q  c #ACAA9E",
"!  c #94B1A3",
"~  c #98B4A6",
"^  c #97B8A8",
"/  c #9EB8A9",
"(  c #A5A5A5",
")  c #A8A7A1",
"_  c #A5A9A1",
"`  c #ADADA4",
"'  c #AEAFA9",
"]  c #B1AEA3",
"[  c #ADB1AB",
"{  c #A7BDAF",
"}  c #B3B1A5",
"|  c #B5B3AA",
" . c #B9B6AC",
".. c #B7B9AD",
"X. c #BAB8AE",
"o. c #AEBDB4",
"O. c #B6B6B4",
"+. c #B9B5B1",
"@. c #B7B9B3",
"#. c #BCBBB3",
"$. c #B6BAB9",
"%. c #BDBDBA",
"&. c #C1BDB6",
"*. c #C2BFB8",
"=. c #82C6AC",
"-. c #8EC5AE",
";. c #84C8AE",
":. c #93C6AF",
">. c #8EC5B0",
",. c #8DCAB3",
"<. c #90CBB3",
"1. c #99CDB8",
"2. c #A9C3B8",
"3. c #A4C9B9",
"4. c #BEC1BC",
"5. c #C5C3B7",
"6. c #C3C2BC",
"7. c #CBC6BD",
"8. c #A3D4C1",
"9. c #AFDAC7",
"0. c #B9E0D1",
"q. c #C4C5C1",
"w. c #C9C6C1",
"e. c #C6C8C2",
"r. c #CBCAC5",
"t. c #CDCECB",
"y. c #D1CCC6",
"u. c #D2CECC",
"i. c #CCD1C7",
"p. c #CED1CC",
"a. c #C3D8CD",
"s. c #D2D2CE",
"d. c #D8D5CF",
"f. c #C3DDD1",
"g. c #D5D5D3",
"h. c #D9D6D2",
"j. c #D7D8D4",
"k. c #DADAD6",
"l. c #D6D6D8",
"z. c #D7D8D8",
"x. c #DDDDDB",
"c. c #E3DEDB",
"v. c #C5E2D6",
"b. c #DEE1DC",
"n. c #E3E2DD",
"m. c #DEE4E3",
"M. c #E4E4E2",
"N. c #E7E8E7",
"B. c #E9E9E6",
"V. c #E6E5EA",
"C. c #EBE7E8",
"Z. c #EBEBEA",
"A. c #EDEDED",
"S. c #EEEEED",
"D. c #EAF0EE",
"F. c #F0F3EE",
"G. c #F1EFF0",
"H. c #F2F3F2",
"J. c #F3F4F3",
"K. c #F6F6F6",
"L. c #F9F6F4",
"P. c #F7FAF6",
"I. c #F6F6F8",
"U. c #F9FAFB",
/* pixels */
"B B B B B B B V C C V B B B B B B B B B B V C C V B B B B B B B B B B B B V C C V B B B m m m B B B ",
"B B B B B B B C ,.,.C B B B B V B B B B V C ,.,.C B B B B B B B B B B B B C ,.,.C B B m x x m B B B ",
"B B B B B B B C ,.,.C B B B B m n n m B V C ,.,.C B B B B B B B B B B B B C ,.,.C B B m x x m N c m ",
"B B B B B B B V C C V B B B B n z z U ` Q Q ] ` ^ B B B B B B B B B B B B V C C V B B m m m N m z z ",
"B B B B B B B B B B B B B B B n b | ] } X.&.+.X.] ] / N B B B B B B B B B B B B B B B B B B B c z z ",
"B B B B B B B B B B B B B B B o.) ] +.*.r.7.w.7.&.} | @.B B B B B B B B B B B B B B B B B B B N n n ",
"V B B B B B B B B B B B B B ! P E #.r.g.h.h.s.y.7.X.|  .6.C V B B B B B B B B B B B B V C C V B N B ",
"C B B B B B B B B B B B B B Y T  .w.c.Z.Z.B.n.k.d.6. .| 6.8.C B B B B B B B B B B B B C ,.,.C B B B ",
"C V C C V B B B B B B B B S.G E 5.x.H.U.B.r.N.c.d.6.&.} & S.C V C C V B B B B B B B B C ,.,.C V C C ",
"V C ,.,.C B B B B B B B B F J } 7.D.D.1 r K.G.c.k.i.#.] ` o ;.C ,.,.C B B B B B B B B V C C V C ,.,.",
"B C ,.,.C B B B B B B B U G L ` r.> b.g H.P.Z.B.n.x.6.] W x.p.C ,.,.C B B B B B B B B B B B B C ,.,.",
"B V C C V B B B B B B B U D L ] f M.U.U.I.H.A.N.M.c.r.} R q.H.V C C V B B B B B B B B B B B B V C C ",
"B B B B B B B B B N m m ~ G T 0 &.x.G.L.K.A.M.M.b.j.5.} Y 4.K.B B B B B B B B B m m m B B B B B B B ",
"B B B B B B B B B m x x -.H P Q | r.x.B.S.S.Z.N.x.s.&.Q Y g.J.B B B B B B B B m c c m B B B B B B B ",
"B B B B B B B B B m x x m G Y Q ] 5.g.n.Z.S.S.Z.M.k.r.| Q m.8.B B B B * B B B m x x m B B B B B B B ",
"B B B B B B B B B N m m N J P E | &.s.M.Z.S.Z.Z.M.b.d.4.@.x.B B B B k : B B B m m m B B B B B B B B ",
"B B B B B B B V C C V B B :.W ` &.| s.n.V.Z.B.M.M.x.g.t.s.m.m V V < % o q V C C V B B B B B B B B B ",
"N B B B B B B C ,.,.C B B B | 6.q.w.u.g.x.c.M.n.x.k.t.k.Z.x m B p.+ % X o l ,.,.C B B B B B B B B B ",
"N N c n N N B C ,.,.C B B B B N.M.g.s.t.s.g.h.k.k.z.s.Z.c x m 1.t.r.  O 7 >.,.,.C B B B B B B B B B ",
"B c z g n B B V C C V B B B B B S.B.k.t.t.x.M.l.g.+.t.V m m N 7.t.x.x.u < V C C V B B B B B B B B B ",
"B c z z n N N n N B B B B B B B N j l.t.x.C.x.g.6.s y B B B ,.y.x.x.n.M.x.m N B B B B B B B B B B B ",
"B B n n N n x x N N B B B B B B B B m 5 . . % O % :.o t.x.b.6.k.z.k.x.x.A x m B B B B B B B B B B B ",
"B B B B B N x x m B B B B B B B B B B B     O   7 7.O ; Q w.+.s.g.g.x.m.c x m B B B B V C C V B B B ",
"A B B B N N m m N B B B B B B B B B ` J | ) s 6.k.x.| . w ] k.F.t.g.x.N m m N B B B B C ,.,.C B B B ",
"Z B C C B B B B n n N V N B B V C =.u.P 5.d.n.M.n.n.k.8 + ` Z.x.e.k.Z B B N n n m B B C ,.,.C V C C ",
"B Z ,.,.C B B n z z n V B B B C ,.{ 6.R r.n.B.M.x.g.k.B., C V ;.,.,.C B B n z z n B B V C C V C ,.,.",
"B Z ,.,.V B B n z z n V B B B C ,.R b.D.7.k.J.q     O x.s.B V C ,.,.C B B c z z n V B B V B B V ,.,.",
"B B Z C B B B B n c N N B B B V ;.R R n.&.o     % o   o g.a.B V C C B B B N m n m B B B B B V V C C ",
"B B B B B B B B B N N n B B B V R 4 } k.n.X     o         g.N V B B B B B B B B m m m B B B B B B B ",
"B B B B B B B B N m x x m B B z.@.' 9 ..  @.j.b.n.k.s.t.F.H.B N B B B B B B B m c c m B B B B B B B ",
"B B B B B B B B B m x x m B B Z...6.i.e.L Q k.n.c.h.r.%.r.Z.A B B B B B B B B m x x m B B B B B B B ",
"B B B B B B B B B N m m N B 9.W X.7.<.[ Y Q k.n.n.d.t.6.' g.v.B B B B B B B B m m m B B B B B B B B ",
"B B B B B B B B Z C B B B B D.I 7.r.C | I W g.M.n.x.s.g.@.#.x.B B B B B B V C C V B B B m m N B B B ",
"B B B B B B B Z ,.,.Z B B B 9.I t.t.V %.` ` k.S.n.k.n.k.k.O % C B B B B B C ,.,.C B B m x x m B B B ",
"B B B B B B B Z ,.,.C B B M 6.E K 6.N 7 e.O.p.S.C.V.n.g.O   > I.B B B B B C ,.,.C B B m c c m m n n ",
"B B B B B B B B C C B B B M ' 6 o q m   ( g.p.b.c.c.h.9.  a e.4.B B B B B V C C V B B B m m B c z z ",
"B B B B B B B B B B B B B B >.p > $ @ O   5 g.p.u.u.r.. 8 m.t.$.B B B B B B B B B B B B B B B c z z ",
"B B B B B B B B B B B B B B N 5 ; t 5 S # . O r.q.%.4 . N.M.j.V.B B B B B B B B B B B B B B B B n n ",
"V B B B B B B B B B B B B B B i = % B f.s o o   > >.V N.V.M.l.0.B B B B B B B B B B B V C C V B B B ",
"Z B B B B B B B B B B B B B B M ; e B B t.q.F h S.B 3.g.V.M.r.V B B B B B B B B B B B C ,.,.C B B B ",
"C V C C V B B B B B B B B B B V C C V B q.l.p.r.p.B 2.    8 q.V C C V B B B B B B B B C ,.,.C V C C ",
"V C ,.,.C B B B B B B B B B B C ,.,.C B _ H.g.4.g.B ' M.M.r.) C ,.,.C B B B B B B B B V C C V C ,.,.",
"B C ,.,.C B B B B B B B B B B C ,.,.C C j Z.g.g.D.V g.g.S.s.K.C ,.,.C B B B B B B B B B B B B C ,.,.",
"B V C C V B B B B B B B B B B V C C V S.6.@.p.Z.m.Z +.r.$.` R ,.C C V B B B B B B B B B B B B V C C ",
"B B B B B B B B N N m m N B B B B B V %.x.q.q.g.q.v p.l.g.k.U.-.B B B B B B B N m m N B B B B B B B ",
"B B B B B B B B N m x x m B B B B B B - @ $ 2 m c m m.x.t.r.s.A B B B B B B B m x x m B B B B B B B ",
"B B B B B B B B B m x x m B B B B B B B B B B m c c : > # . v B B B B B B B B m x x m B B B B B B B ",
"B B B B B B B B N N m m N B B B B B B B B B B m m m m B B B B B B B B B B B B m m m N B B B B B B B ",
"N B B B B B B V C C V B B B B B B B B B B V C C V B B N m m N B B B B B B V C C V B B B B B B B B B ",
"m B B B B B B C ,.,.C B B B B B B B B B B C ,.,.C B B m x x m N B B B B B C ,.,.C B B B B B B B B B "
};
