/* XPM */
static char *a4bba1550bff4a319ea0bdab4978a321cG16GAat2xTdTXM2[] = {
/* columns rows colors chars-per-pixel */
"50 50 166 2 ",
"   c #16110D",
".  c #131312",
"X  c #1C1614",
"o  c #161817",
"O  c #1A1A15",
"+  c #1D1C1A",
"@  c #231E1B",
"#  c #24211E",
"$  c #29231B",
"%  c #211F20",
"&  c #232522",
"*  c #2A2623",
"=  c #2C2925",
"-  c #2E2928",
";  c #322C2A",
":  c #2E3C2E",
">  c #34312D",
",  c #363230",
"<  c #3C3633",
"1  c #443D35",
"2  c #453B38",
"3  c #3B403C",
"4  c #484442",
"5  c #564740",
"6  c #4C5C45",
"7  c #574E51",
"8  c #475751",
"9  c #535757",
"0  c #595651",
"q  c #625758",
"w  c #605858",
"e  c #456F5E",
"r  c #6F645A",
"t  c #78655E",
"y  c #6F6764",
"u  c #6C6865",
"i  c #7A6B64",
"p  c #7E7976",
"a  c #806D66",
"s  c #877A75",
"d  c #807B7F",
"f  c #57806E",
"g  c #96857E",
"h  c #729889",
"j  c #42AE80",
"k  c #55B78E",
"l  c #61BA95",
"z  c #6BBE9B",
"x  c #71BD9F",
"c  c #70C09E",
"v  c #6FC0A0",
"b  c #72C1A2",
"n  c #78C3A6",
"m  c #7FC6AA",
"M  c #8F8882",
"N  c #8C8C89",
"B  c #908681",
"V  c #9D8C83",
"C  c #968F89",
"Z  c #9D918B",
"A  c #9D9491",
"S  c #999E9B",
"D  c #A6958C",
"F  c #A49691",
"G  c #A89790",
"H  c #A59992",
"J  c #AB9C94",
"K  c #A29C98",
"L  c #AC9F9D",
"P  c #ABA197",
"I  c #ADA39C",
"U  c #B2A49D",
"Y  c #88B6A4",
"T  c #8FBFAC",
"R  c #ADA4A1",
"E  c #AFAAA7",
"W  c #ADA9A8",
"Q  c #B5ABA2",
"!  c #BAADA4",
"~  c #B4ACAB",
"^  c #BBAFAB",
"/  c #BDB1A6",
"(  c #B6B1AE",
")  c #BCB3AC",
"_  c #BCB5B3",
"`  c #BCB9B4",
"'  c #B4B8B8",
"]  c #BFBABA",
"[  c #C2B0A7",
"{  c #C1B5AD",
"}  c #C3B9AF",
"|  c #C1B7B4",
" . c #C5BAB4",
".. c #CBBEB4",
"X. c #C4BDBA",
"o. c #CCBFB9",
"O. c #8CC9B2",
"+. c #90CBB4",
"@. c #9CC8B7",
"#. c #95CFB9",
"$. c #97D0B9",
"%. c #9CD3BE",
"&. c #A5C8B8",
"*. c #A8CBBA",
"=. c #CBC1B6",
"-. c #C6C2BE",
";. c #CBC3BC",
":. c #D1C5BC",
">. c #D2C8BF",
",. c #C1BFC2",
"<. c #BCD6CF",
"1. c #BBDBCF",
"2. c #C4C3C2",
"3. c #CBC4C3",
"4. c #CDC9C5",
"5. c #C7C4CD",
"6. c #C9C7C8",
"7. c #CDCCCC",
"8. c #D1C6C2",
"9. c #D3CBC4",
"0. c #D8CFC6",
"q. c #D0C7C8",
"w. c #D4CDCA",
"e. c #D8CECB",
"r. c #D8D0C5",
"t. c #D4D2CE",
"y. c #DAD3CD",
"u. c #CDCED3",
"i. c #D1CFD1",
"p. c #C6D9D3",
"a. c #D5D4D4",
"s. c #DBD5D3",
"d. c #DDD9D5",
"f. c #D9D6D8",
"g. c #D6D9DD",
"h. c #DCDBDB",
"j. c #E1D7D5",
"k. c #E1DAD6",
"l. c #E3DDDA",
"z. c #C7E3D8",
"x. c #E5E1DD",
"c. c #E9E2DE",
"v. c #DDDFE3",
"b. c #E1DFE0",
"n. c #CFE8E2",
"m. c #DEE2E7",
"M. c #D2EBE1",
"N. c #E4E4E3",
"B. c #EBE5E4",
"V. c #EBE9E7",
"C. c #EDE9E6",
"Z. c #E5E7EA",
"A. c #E5E8EB",
"S. c #ECEAEA",
"D. c #F1E9E6",
"F. c #F2EEED",
"G. c #F4F1EB",
"H. c #F5F0EE",
"J. c #ECEDF0",
"K. c #F6F1F0",
"L. c #F6F4F2",
"P. c #FAF3F3",
"I. c #F9F5F5",
"U. c #FAF9F7",
"Y. c #F3F6F8",
"T. c #FEFDFD",
/* pixels */
"v v v v v v v b n n b v v v v v v v v v v b n n b v v v v b b v v v v v v b n n b v v z z z z v v v ",
"v v v v v v v n O.O.n v v v v v v v v v v n O.O.n v b b b v v v v v v v v n O.O.n v v z k k z v v v ",
"v v v v v v v n O.O.n v v v v z l l z v v n O.` } ..=..... .[ n v v v v v n O.O.n v v z k k z z l l ",
"v v v v v v v b n n b v v v v l j j l v v m  ...=.:.;.;.:.=. .| I v v v v b n n b v v z z z z l j j ",
"v v v v v v v v v v v v v v v l j j l z *. ...;.8.0.y.r.9.:.o.| ! ! v v v v v v v v v v v v v l j j ",
"v v v v v v v v v v v v v v v z l l z c _  ...:.0.y.k.l.k.s.w.;.} Q P v v v v v v v v v v v v z l l ",
"b v v v v v v v v v v v v v v v v v v -.) { o.0.y.k.c.F.K.F.B.y. ./ I A v v v v v v v b n n b v v v ",
"n v v v v v v v v v v v v v v v v v p.X.! { :.0.k.c.G.U.T.T.T.C.9.) Q D v v v v v v v n O.O.n v v v ",
"n b n n b v v v v v v v v v v b n n T.~ U ..8.y.k.B.L.T.T.T.T.U.l.X.^ H A v v v v v v n O.O.n b n n ",
"b n O.O.n v v v v v v v v v v n O.O.U.J ! ;.9.d.l.B.P.T.T.T.T.T.B.8.) J g v v v v v v b n n b n O.O.",
"v n O.O.n v v v v v v v v v v n O.+.7.J ! >.k.c.B.C.P.T.T.T.T.T.B.9.) J V v v v v v v v v v v n O.O.",
"v b n n b v v v v v v v v v v b n p.] G / ;.s.l.B.B.F.I.T.T.T.L.c.4.{ J V v v v v v v v v v v b n n ",
"v v v v v v v v v z z z z v v v v n.-.G ! =.e.k.c.B.C.K.U.U.L.C.d.-.[ J V v v z z z z v v v v v v v ",
"v v v v v v v v v z k k z v v v v %.t.J Q o.9.k.j.C.F.K.H.F.B.l.w. .! H V v v z k k z v v v v v v v ",
"v v v v v v v v v z k k z v v v v b d.J Q  .w.k.C.C.F.K.H.D.l.s.3.} U H g v v z k k z v v v v v v v ",
"v v v v v v v v v z z z z v v v v v 7.! ! o.s.l.B.F.H.H.F.6 6 : C -.B X N v v z z z z v v v v v v v ",
"z v v v v v v b n n b v v v v v v v Z.3.X.9.y.x.B.F.F.F.F.F.+ y.;.^ P H v b n n b v v v v v v v v v ",
"z v v v v v v n O.O.n v v v v v v v 8 N.s.w.s.h.f.B.B.B.B.N.f.4.X.( E R v n O.O.n v v v v v v v v v ",
"z z l l z v v n O.O.n v v v v v v v & S.3.4.e.s.d.l.l.h.h.s.e.-.^ 2.7.v v n O.O.n v v v v v v v v v ",
"z l j j l v v b n n b v v v v v v v e + I X.w.-.e.s.f.f.s.e.4.) _ A.l v v b n n b v v v v v v v v v ",
"v l j j l z z z z v v v v v v v v x v . . U 9.w.;.8.w.e.y.w.-.) u.j l z z z z v v v v v v v v v v v ",
"v z l l z z k k z v v v v v v &. . .. 5 . O K w.;.)  .w.7.-._ z l l z z k k z v v v v v v v v v v v ",
"b v v v v z k k z v v v v v v ! l.T.o H t @ . . @ ) U  .T n b v v v v z k k z v v v v b n n b v v v ",
"n v v v v z z z z v v v v v b ;.B.C.# < -.V a r H a.Z +.O.O.n v v v v z z z z v v v v n O.O.n v v v ",
"n b n n b v v z l l z v v v { k.S.k.+ A T.N.;.{ X.7.1 I , O.1.a.w.4.4 ; b * = * z v v n O.O.n b n n ",
"b n O.O.n v v l j j l v v ) 9.C.I.  + k.T.T.D.y.;.;.1 ;.s D Q ) { ) # = * + j j l v v b n n b n O.O.",
"v n O.O.n v v l j j l v 3.9.@ l.l.$ 9.l.T.T.T.l.9.8.U ;.Q -.4. .` ) ) @ * * j j l v v v v v v n O.O.",
"v b n n b v v z l l z v L ..0.d.s =.w.c.U.u % & @ X 0.} x.X._ X.;.-.4.. @ # l l z v v v v v v b n n ",
"v v v v v v v v v z z z F  .y.d.y.} y.h.N . . . . o 3.w.d.3.X.`  . .3.+ , h v z z z z v v v v v v v ",
"v v v v v v v v v z k k ` } 9.k.d.=.y.p 4.F.U.U.f.6.d.v S a.6.6.7.i.i.+.v v v z k k z v v v v v v v ",
"v v v v v v v v v z k k 2.^ 9.l.C.8. .9.t.C.T.T.h.w.w.v v v v v v v v v v v v z k k z v v v v v v v ",
"v v v v v v v v v z z z ~ ! 9.c.P.k.9.s.h.V.T.T.h.;.7.n v v v v v v v v v v v z z z z v v v v v v v ",
"v v v v v v v b n n b v ' U t.B.T.y.t.h.f.C.T.T.B. .X.M.v v v v v v v v v b n n b v v z z z z v v v ",
"v v v v v v v n O.O.n v v G s.c.T.f.Z c.f.B.T.T.B. ._ Y.v v v v v v v v v n O.O.n v v z k k z v v v ",
"v v v v v v v n O.O.n v v L -.l.T.I.. M _ b.V.S.t.8.h.z.v v v v v v v v v n O.O.n v v z k k z z l l ",
"v v v v v v v b n n b v v @.{ k.S.  < o p a.h.N.h.a.Y.@.v v v v v v v v v b n n b v v z z z z l j j ",
"v v v v v v v v v v v v v v | k.> = # + . _ t.a.t.N.s v v v v v v v v v v v v v v v v v v v v l j j ",
"v v v v v v v v v v v v v v Y + * @ # J.X # X.-.w.2 -.v v v v v v v v v v v v v v v v v v v v z l l ",
"b v v v v v v v v v v v v v v > *   ; Y.Z.7 ) y i 6.h.b n n b v v v v v v v v v v v v b n n b v v v ",
"n v v v v v v v v v v v v v v ; > < , d l.F.R ^ a.h.X n O.O.n v v v v v v v v v v v v n O.O.n v v v ",
"n b n n b v v v v v v v v v v b S 4 W h.6.L.u.q.2.N.g.n O.O.n b n n b v v v v v v v v n O.O.n b n n ",
"b n O.O.n v v v v v v v v v v n z.C X.h.h.N.g.6.a.f.T.# n n b n O.O.n v v v v v v v v b n n b n O.O.",
"v n O.O.n v v v v v v v v v v n <.v.w.S.C.A.m.a.7.3.w.a.b v v n O.O.n v v v v v v v v v v v v n O.O.",
"v b n n b v v v v v v v v v v b #.e.R ^ 4.a.m.a.,.6.i.a.7.$.v b n n b v v v v v v v v v v v v b n n ",
"v v v v v v v v v z z z z v v v a.g.7.i.f.S.2.] 2.a.w.a.K.f.b v v v v v v v v z z z z v v v v v v v ",
"v v v v v v v v v z k k z v v v n 5.] 3.f.h.S.f = # * # * > 9 v v v v v v v v z k k z v v v v v v v ",
"v v v v v v v v v z k k z v v v v q - w 0 * 3 z k k z v v v v v v v v v v v v z k k z v v v v v v v ",
"v v v v v v v v v z z z z v v v v v v v v v v z z z z v v v v v v v v v v v v z z z z v v v v v v v ",
"z v v v v v v b n n b v v v v v v v v v v b n n b v v z z z z v v v v v v b n n b v v v v v v v v v ",
"z v v v v v v n O.O.n v v v v v v v v v v n O.O.n v v z k k z v v v v v v n O.O.n v v v v v v v v v "
};
