/* XPM */
static char *xpm_[] = {
/* columns rows colors chars-per-pixel */
"50 50 105 2 ",
"   c #010101",
".  c #0A0100",
"X  c #030906",
"o  c #090806",
"O  c #0C0C0C",
"+  c #140101",
"@  c #1C0102",
"#  c #170E0C",
"$  c #210403",
"%  c #2D0809",
"&  c #31090D",
"*  c #3F2D1E",
"=  c #1E312A",
"-  c #2D2928",
";  c #3B2B24",
":  c #3A393A",
">  c #46090B",
",  c #5F0907",
"<  c #520B0C",
"1  c #590E10",
"2  c #431013",
"3  c #4A1318",
"4  c #65070C",
"5  c #6A060A",
"6  c #64090B",
"7  c #780308",
"8  c #700E0F",
"9  c #690910",
"0  c #641513",
"q  c #68262B",
"w  c #524126",
"e  c #514332",
"r  c #51433B",
"t  c #355F4D",
"y  c #4A4948",
"u  c #7A654E",
"i  c #676466",
"p  c #87070F",
"a  c #90090A",
"s  c #8E0C11",
"d  c #9C1C1B",
"f  c #AE141B",
"g  c #B51519",
"h  c #BD141C",
"j  c #B41523",
"k  c #B21920",
"l  c #BB1D28",
"z  c #99262C",
"x  c #A9212C",
"c  c #A52A36",
"v  c #C60C15",
"b  c #C90D17",
"n  c #C20E19",
"m  c #CA0F1B",
"M  c #C51216",
"N  c #CA1116",
"B  c #C61118",
"V  c #C91119",
"C  c #B5454A",
"Z  c #519377",
"A  c #40AF81",
"S  c #54B88F",
"D  c #61BB96",
"F  c #6ABE9B",
"G  c #6DC09F",
"H  c #6FC1A1",
"J  c #73C2A3",
"K  c #79C4A7",
"L  c #AEACA9",
"P  c #CCAC84",
"I  c #C5AD8B",
"U  c #CAAC89",
"Y  c #D1AC87",
"T  c #C8B18E",
"R  c #C2BFBF",
"E  c #87C2AC",
"W  c #8DCAB3",
"Q  c #C5C4C2",
"!  c #D2D2D1",
"~  c #F8C7C2",
"^  c #F6CED5",
"/  c #E7E6E3",
"(  c #EAE7E5",
")  c #EBE8E7",
"_  c #ECEAE9",
"`  c #EDECEA",
"'  c #EDEBED",
"]  c #EFEEEC",
"[  c #F3E3E0",
"{  c #FDE7E5",
"}  c #F2ECE9",
"|  c #F0ECEB",
" . c #F7EFEA",
".. c #F0ECED",
"X. c #F2EEED",
"o. c #EEF0EA",
"O. c #F1F1EF",
"+. c #F4F0EF",
"@. c #FBF1EF",
"#. c #F3F2F0",
"$. c #F6F2F1",
"%. c #F7F3F2",
"&. c #FBF8F7",
"*. c #FAF6F8",
"=. c #FEFEF9",
/* pixels */
"H H H H H H H J K K J H H H H H H H H H H J K K J H H H H H H H H H H H H J K K J H H F F F H H H H ",
"H H H H H H H K W W K H H H H H H H H H H K W W K H H H H H H H H H H H H K W W K H J F S S F H H H ",
"H H H H H H H K W W K H H H H G D D F J H K W W K H H H H H H H H H H H H K W W K H H F S S F F D D ",
"H H H H H H H J K K J H H H H D A A D H H J K K J H H H H H H H H H H H H J K K J H J F F F F D A A ",
"H H H H H H H H H H H H H H H D A A D H F F G H H H H H H H H H H H H H H H H H H H H H H H H D A A ",
"H H H H H H H H H H H H H H H F D D F F S S F H H H H H H H H H H H H H H H H H H H H H H H J F D D ",
"J H H H H H H H H H H H H H H H H H H F S S F H H H H J K K J H H H H H H H H H H H H J K K J H H H ",
"K H H H H H H H H H H H H H H H H H H G F F F H H H H K W W K H H H H H H H H H H H H K W W K H H H ",
"K J K K J H H H H H H H H H H J K K J H H H D D F H H K W W K J K K K H H H J H H H H K W W K J K K ",
"J K W W K H H H H H H H H H H K W W K H H D A A D H H J K K J K W W K J H H F J H H H J K K J K W W ",
"H K W W K H H H H H H H H H H K W W K H H D A A D H H H H H H K W E             H H H H H H H K W W ",
"H J K K J H H H H H H H H H H J K K J H H F D D G H H H H H H J     Y P ; ;     H H H H H H H J K K ",
"H H H H H H H H H G F F F H H H H H H H H H H H F F H H H J H   P I P P r ; #   F F F J H H H H H H ",
"H H H H H H H H H F S S F H H H H H H H H H H F S S     2     P U w e         F S S F H H H H H H H ",
"H H H H H H H H H F S S F H H H H H H H               M M   * U P     H H H   F S S F H H H H H H H ",
"H H H H H H H H H G F F G H H H H     > B B M M M q 6 M n T u P     H H H H H H F F F H H H H H H H ",
"H H H H H H H J K K J H H H H J   d B B B B B M 6   4 6 B   U   M < = F J J K K J H H H H H H H H H ",
"F H H H H H H K W W K H H H H   g B B B B M B M 5   4 4 6 V B B V N   J H K W W K H H H H H H H H H ",
"F F D D F H H K W W K H H H X 7 M B B B B B B B g 4 . 6 V B 6 M N + F H H K W W K H H H H H H H H H ",
"G D A A D H H J K K J o     s 6 n B B B B B B B B h 6   V 4 5 M V & X H H J K K J H H H H H H H H H ",
"H D A A D G F F F H   $.}   6 6 B B B B B B M B B B B 6     B V   V   H F F G H H H H H H H H H H H ",
"H F D D F F S S F H   ) O.O.  f m B B M M v 1   @ b B B b @.' V B B V   S S F H H H H H H H H H H H ",
"J H H H H F S S F G O.#.$.O./   l B x     L X.)   n B M X.X.X.X.~ B M   S S F H H H H J K K J H H H ",
"K H H H J G F F F J X.O.` ) X.O.- V i #.` ] ] O.  V B B X.X.X.X.X.v B g Z F G J H H H K W W K H H H ",
"K J K K J H H G D D   _ O.) ) ` O f   @.` _ ` (   B B V +.X.X.X.X. .B B   F D D G H H K W W K J K K ",
"J K W W K H H D A A   `     _ @.  n   _   / $._   B B B } X.X.X.+.) B B   D A A D H H J K K J K W W ",
"H K W W K H H D A A   X   : X.  8 m   }   X._ *.4 B n B B ' X.X.] j M M   D A A D H H H H H H K W W ",
"H J K K J H H G D D   M       % B V B     O.X.  M M B B B V B ^ h B B M   F D D F H H H H H H J K K ",
"H H H H H H H H H G t M 6 @ . 5 V B B B     . 4 B V B V B ` X.{ V N B B   H G G F F G H H H H H H H ",
"H H H H H H H H H F S @ 6 6 6 6 k V B B B B V B B n M M h X.X.X.n M M m   H H F S S F H H H H H H H ",
"H H H H H H H H H F S   6 9 6 5 4 B B B M B B B b B n V V [ X.X.C B M h   H H F S S F H H H H H H H ",
"H H H H H H H H H G F         3 9 a V h @         B M B B b d { B B V   H H G G F F G H H H H H H H ",
"H H H H H H H J K K J   $.( X.X.#.y ] _ X.X.X.#.  B B B B B B N B B M   H J K K J H H G F F F H H H ",
"H H H H H H H K W W K H   / (   ) *./ %.  O.)     B B B B B B n B M   H H K W W K H J F S S F H H H ",
"H H H H H H H K W W K H H   Q #.  X.$.    O !   n B B B B B B n b h   H H K W W K H H F S S F F D D ",
"H H H H H H H J K K J H H     ) =.  o ( '     M V M B B B B B M V   H H H J K K J H H F F F H D A A ",
"H H H H H H H H H H H H H H   R *.) o.&.)   . M B B M n V M M M   J H H H H H H H H H H H H H D A A ",
"H H H H H H H H H H H H H H H o   V 1 @     4 5 6 M B M B B z   J G H H H H H H H H H H H H H F D D ",
"J H H H H H H H H H H H H H H H H   @ M 6 5 6 6 6 5 6 p B     H G H H H H H H H H H H J K K J H H H ",
"K H H H H H H H H H H H H H H H H H H     . 0 z c +     O W K H H H H H H H H H H H H K W W K H H H ",
"K J K K J H H H H H H H H H H J K K J H H G D D F H H K W W K J K K J H H H H H H H H K W W K J K K ",
"J K W W K H H H H H H H H H H K W W K H G D A A D H H J K K J K W W K H H H H H H H H J K K J K W W ",
"H K W W K H H H H H H H H H H K W W K H H D A A D H H H H H H K W W K H H H H H H H H H H H H K W W ",
"H J K K J H H H H H H H H H H J K K J H H G D D G H H H H H H J K K J H H H H G H H H H H H H J K K ",
"H H H H H H H H H F F F H H H H H H H H H H G G F F G H H H H H H H H H H H H G F F G H H H H H H H ",
"H H H H H H H H H F S S F H H H H H H H H H H F S S F H H H H H H H H H H H H F S S F H H H H H H H ",
"H H H H H H H H H F S S F H H H H H H H H H H F S S F G H H H H H H H H H H H F S S F H H H H H H H ",
"H H H H H H H H H G F F F H H H H H H H H H H G F F G H H H H H H H H H H H H F F F H H H H H H H H ",
"G H H H H H H J K K J H H H H H H H H H H J K K J H H G F F G G H H H H H J K K J H H H H H H H H H ",
"F H H H H H H K W W K H H H H H H H H H H K W W K H H F S S F H H H H H H K W W K H H H H H H H H H "
};
