/* XPM */
static char *_71d1cbdac2b4d2debb3ce8caeaaf832GOuVObv9NDGI52Sb[] = {
/* columns rows colors chars-per-pixel */
"50 50 123 2 ",
"   c #2F251A",
".  c #332416",
"X  c #3E2613",
"o  c #3A2815",
"O  c #32231A",
"+  c #39281B",
"@  c #3F311E",
"#  c #3D332D",
"$  c #402612",
"%  c #432917",
"&  c #4D2E16",
"*  c #422919",
"=  c #4B2D1B",
"-  c #502E1C",
";  c #57321F",
":  c #5B321D",
">  c #63351C",
",  c #6A371C",
"<  c #67381E",
"1  c #733D1F",
"2  c #473427",
"3  c #42312A",
"4  c #573220",
"5  c #593221",
"6  c #653A22",
"7  c #6B3D23",
"8  c #6D3E2A",
"9  c #733E24",
"0  c #52422D",
"q  c #5E4331",
"w  c #564C3D",
"e  c #5B4A3C",
"r  c #6E402A",
"t  c #774127",
"y  c #794123",
"u  c #73472C",
"i  c #794228",
"p  c #73482D",
"a  c #6E483B",
"s  c #77513D",
"d  c #8B4B27",
"f  c #84472A",
"g  c #854F2F",
"h  c #894B2B",
"j  c #90502D",
"k  c #854F30",
"l  c #855030",
"z  c #965432",
"x  c #995532",
"c  c #9F5934",
"v  c #A25B35",
"b  c #AA5F36",
"n  c #AB6137",
"m  c #AC6138",
"M  c #B3673C",
"N  c #BE6B3F",
"B  c #895D42",
"V  c #866545",
"C  c #8C684A",
"Z  c #826155",
"A  c #986F5B",
"S  c #AB6D43",
"D  c #B06941",
"F  c #BD6B41",
"G  c #AF714A",
"H  c #B1794C",
"J  c #816760",
"K  c #A07A67",
"L  c #A07F6C",
"P  c #C06C40",
"I  c #C67143",
"U  c #CF7446",
"Y  c #C5794C",
"T  c #CA7A4B",
"R  c #D47646",
"E  c #D67847",
"W  c #D47949",
"Q  c #DF7F4C",
"!  c #E07F4D",
"~  c #BC8667",
"^  c #DF804F",
"/  c #D58454",
"(  c #DA8653",
")  c #DB8855",
"_  c #DB8D5A",
"`  c #E2814E",
"'  c #E48955",
"]  c #E38E58",
"[  c #C7936C",
"{  c #DE9161",
"}  c #CF9D70",
"|  c #E09A65",
" . c #EF9B67",
".. c #E19C69",
"X. c #EF9B68",
"o. c #EF9C68",
"O. c #F29860",
"+. c #F79A61",
"@. c #F79C62",
"#. c #F09B67",
"$. c #F89B61",
"%. c #F89C63",
"&. c #F89D65",
"*. c #F09B68",
"=. c #F5A56D",
"-. c #F0A873",
";. c #F1B884",
":. c #F0C199",
">. c #D7CFCB",
",. c #DBD3CC",
"<. c #DCD5D4",
"1. c #E8D9CF",
"2. c #E5D7D1",
"3. c #E3DBD7",
"4. c #E7DCD4",
"5. c #FAE4C1",
"6. c gray93",
"7. c #FBEBE0",
"8. c #F1EFED",
"9. c #F3F0E5",
"0. c #FDF2E4",
"q. c #F1F0EF",
"w. c #F5F1EE",
/* pixels */
"1.] +.+.+.$.$.+.$.$.$.$.$.$.$.$.$.$.$.$.$.$.&.5.w.8.L O.$.+.@.@.+.%.+.@.@.@.+.+.+.@.@.%.%.@.%.&.=.7.",
"< v m n n m m n n n n n n n n n n n n n m m M ( B q 6 b m n n n n n m m m m n m n n n m m m m m M ' ",
"> z v v v v v v v v v v v v v v v v v v v v b E 8 * : c v v v v v v v v v v v v v v v v v v v v m ` ",
"> z v v v v v v v v v v v v v v v v v v v v v E 8 * : c v v v v v v v v v v v v v v v v v v v v n ` ",
"> z v v v v v v v v v v v v v v v v v v v v v E r * : c v v v v v v v v v v v v v v v v v v v v n ` ",
"> z v v v v v v v v v v v v v v v v v v v v v E r * : c v v v v v v v v v v v v v v v v v v v v n ` ",
"> z v v v v v v v v v v v v v v v v v v v v v E 8 * : c v v v v v v v v v v v v v v v v v v v v n ` ",
"> z v v v v v v v v v v v v v v v v v v v v v E r * : c v v v v v v v v v v v v v v v v v v v v n ` ",
"> z v v v v v v v v v v v v v v v v v v v v v E r * : c v v v v v v v v v v v v v v v v v v v v n ` ",
"> z v v v v v v v v v v v v v v v v v v v v v E r * : c v v v v v v v v v v v v v v v v v v v v n ` ",
"> z v v v v v v v v v v v v v v v v v v v v v E 8 * : v v v v v v v v v v v v v v v v v v v v v n ` ",
"> z v v v v v v v v v v v v v v v v v v v v v E 8 * : c v v v v v v v v v v v v v v v v v v v v n ` ",
"> z v v v v v v v v v v v v v v v v v v v v v E 8 * : c v v v v v v v v v v v v v v v v v v v v n ` ",
"> z v v v v v v v v v v v v v v v v v v v v v E 8 * : c v v v v v v v v v v v v v v v v v v v v n ` ",
"Z 9 i i i i i i i i i i i i i i i i i i i i i z = o - t i i i i i i i i i i i i i i i i i i i i i ~ ",
"<.2 X $ $ $ $ $ $ $ $ $ $ $ $ $ $ $ $ $ $ $ $ * . . . $ $ $ $ $ $ $ $ X $ $ $ $ $ $ $ $ $ $ X X q 3.",
"6.# O O O O O O O O . . . . . O O O O O O O O O O O O O O O O O       . . . . . O         O O   w q.",
"4.{  .#. . . . . .*.} 2 . . S #.*.#.X.*.#.#.X. .X. . .X. . . .o.o.o.o.H @ . + G o.o.o.o.o.o.o.o.-.0.",
"u Y / / / / / / / / ..[ . - D / / / / / / / / / / / / / / / / / / / / | V . 6 m / / / / / / / / _ ;.",
"> z v v v v v v v v P W . % h v v v v v v v v v v v v v v v v v v v v F l . : f v v v v v v v v n ` ",
"> z v v v v v v v v F W . % h v v v v v v v v v v v v v v v v v v v v F l . : f v v v v v v v v n ` ",
"> z v v v v v v v v P W . % h v v v v v v v v v v v v v v v v v v v v F k . : f v v v v v v v v n ` ",
"> z v v v v v v v v P W . % h v v v v v v v v v v v v v v v v v v v v F l . : f v v v v v v v v n ^ ",
"> z v v v v v v v v P W . % h v v v v v v v v v v v v v v v v v v v v F l . : f v v v v v v v v n ^ ",
"> z v v v v v v v v P W . % h v v v v v v v v v v v v v v v v v v v v F k . : f v v v v v v v v n ! ",
"> z v v v v v v v v P W . % h v v v v v v v v v v v v v v v v v v v v F g . : f v v v v v v v v n ` ",
"> z v v v v v v v v P W . % h v v v v v v v v v v v v v v v v v v v v F g . : f v v v v v v v v n ` ",
"> z v v v v v v v v P W . % h v v v v v v v v v v v v v v v v v v v v F g . : f v v v v v v v v b ` ",
"> z v v v v v v v v F W . % h v v v v v v v v v v v v v v v v v v v v N g . : f v v v v v v v v n ! ",
"> z v v v v v v v v N W . % h v v v v v v v v v v v v v v v v v v v v F k . : f v v v v v v v v b ! ",
"> z v v v v v v v v N W . % h v v v v v v v v v v v v v v v v v v v v N k . : f v v v v v v v v b ! ",
": 1 y y y y y y y y d j . $ , y y y y y y y y y y y y y y y y y y y y d 6 . = , y y y y y y y y y x ",
">.4 : 5 : : ; 5 5 : : o . . = : 4 5 5 4 ; ; 4 ; 4 ; ; 4 5 5 5 5 5 4 : = . . . & 5 5 4 : : : 5 5 5 ,.",
"6.# . . . . . . . . . . . . . . . . . . . . . . . . . . . . . . . . . . . . . . . . . . . . . . e q.",
"3.s u u u u u p u u u u u u u u p p u u u u p 0 . . * u p p p p u u p p p p p u p u u u u p p p C 9.",
"A T ( ( ( ( ( ( ( ( ( ( ( ( ( ( ( ( ( ( ( ( ) } = . 7 / ( ( ( ( ( ( ( ( ( ( ( ( ( ( ( ( ( ( ( ( _ :.",
"> z v v v v v v v v v v v v v v v v v v v v v R 8 * : c v v v v v v v v v v v v v v v v v v v v b ! ",
"> z v v v v v v v v v v v v v v v v v v v v v R 8 * : c v v v v v v v v v v v v v v v v v v v v b ! ",
"> z v v v v v v v v v v v v v v v v v v v v v R 8 * : c v v v v v v v v v v v v v v v v v v v v b ! ",
"> z v v v v v v v v v v v v v v v v v v v v v R 8 * : c v v v v v v v v v v v v v v v v v v v v b Q ",
"> z v v v v v v v v v v v v v v v v v v v v v R 8 * : c v v v v v v v v v v v v v v v v v v v v b ! ",
"> z v v v v v v v v v v v v v v v v v v v v v R 8 * : c v v v v v v v v v v v v v v v v v v v v b ! ",
"> z v v v v v v v v v v v v v v v v v v v v v R 8 * : c v v v v v v v v v v v v v v v v v v v v b ! ",
"> z v v v v v v v v v v v v v v v v v v v v v R 8 * : c v v v v v v v v v v v v v v v v v v v v b Q ",
"> z v v v v v v v v v v v v v v v v v v v v v R 8 * : c v v v v v v v v v v v v v v v v v v v v b Q ",
"> z v v v v v v v v v v v v v v v v v v v v v R 8 * : c v v v v v v v v v v v v v v v v v v v v b ! ",
"> z v v v v v v v v v v v v v v v v v v v v v R 8 X : c v v v v v v v v v v v v v v v v v v v v b Q ",
"> z v v v v v v v v v v v v v v v v v v v v v R 8 * : c v v v v v v v v v v v v v v v v v v v v b Q ",
": h z z z z z z z z z z z z z z z z z z z z x I a 3 5 z z z z z z z z z z z z z z z z z z z z z v U ",
",.: > > > > > > > > > > > > > > > > > > > > > K 8.6.J > > > > > > > > > > > > > > > > > > > > > > 2."
};
