/* XPM */
static char *xpm_[] = {
/* columns rows colors chars-per-pixel */
"50 50 122 2 ",
"   c #010000",
".  c #020302",
"X  c #040504",
"o  c #050605",
"O  c #070807",
"+  c #060A08",
"@  c #090A09",
"#  c #0A0D0B",
"$  c #0D0E0D",
"%  c #09100D",
"&  c #0E100E",
"*  c #0D1713",
"=  c #131312",
"-  c #161918",
";  c #111D18",
":  c #12201A",
">  c #13211C",
",  c #17221D",
"<  c #172721",
"1  c #183428",
"2  c #1B342A",
"3  c #1C362B",
"4  c #1E352C",
"5  c #242724",
"6  c #2E332F",
"7  c #253F35",
"8  c #254136",
"9  c #315446",
"0  c #34594A",
"q  c #365D4E",
"w  c #434B47",
"e  c #4C514F",
"r  c #525754",
"t  c #575C59",
"y  c #5C615D",
"u  c #41725E",
"i  c #616863",
"p  c #6D7671",
"a  c #6F7873",
"s  c #707973",
"d  c #727875",
"f  c #4D856E",
"g  c #549179",
"h  c #5B9D83",
"j  c #7F8782",
"k  c #42AE80",
"l  c #5EA388",
"z  c #55B78E",
"x  c #61A78C",
"c  c #65AF92",
"v  c #69B195",
"b  c #68B496",
"n  c #61BA95",
"m  c #69BD99",
"M  c #6CBE9D",
"N  c #6DBF9E",
"B  c #6FBF9F",
"V  c #6FC0A0",
"C  c #72C1A2",
"Z  c #78C3A6",
"A  c #828B85",
"S  c #87908B",
"D  c #88928C",
"F  c #909B95",
"G  c #909C96",
"H  c #99A49E",
"J  c #9DA6A1",
"K  c #A1AAA3",
"L  c #A7B0AB",
"P  c #AAB4AD",
"I  c #A9B4AE",
"U  c #A9B5AF",
"Y  c #ACB9B2",
"T  c #AFBAB4",
"R  c #8CC9B2",
"E  c #B3C0BA",
"W  c #B6C1B9",
"Q  c #B6C1BB",
"!  c #B6C3BB",
"~  c #B5C3BC",
"^  c #B6C4BD",
"/  c #B8C1BC",
"(  c #B9C4BC",
")  c #BAC5BD",
"_  c #B9C6BE",
"`  c #BCC6BE",
"'  c #BBC6C0",
"]  c #BCC5C0",
"[  c #BDC8C0",
"{  c #BEC9C2",
"}  c #C0CDC5",
"|  c #C4D1CA",
" . c #CED0CF",
".. c #C8D5CC",
"X. c #CCD8D0",
"o. c #D2D7D5",
"O. c #D3DED8",
"+. c #DCE9E1",
"@. c #E2F2E8",
"#. c #E4F2EA",
"$. c #E9F8EF",
"%. c #E8F9EF",
"&. c #EBF6F0",
"*. c #E7FAF0",
"=. c #E9FAF1",
"-. c #ECF9F2",
";. c #ECFDF3",
":. c #EDFDF3",
">. c #EDFAF4",
",. c #EDF9F6",
"<. c #EDFAF7",
"1. c #EBFFF4",
"2. c #ECFEF4",
"3. c #F0FCF3",
"4. c #F0FBF7",
"5. c #F1FCF4",
"6. c #F0FDF4",
"7. c #F2FCF9",
"8. c #F1FEF9",
"9. c #F2FCFB",
"0. c #F4FFF9",
"q. c #F6FFFC",
/* pixels */
"V V V V V V V C Z Z C V V V V V V V V V V C Z Z C V V V V V V V V V V V V B Z Z C V V N m m N V V V ",
"V V V V V V V Z R R Z V V V V V V V V V V Z R R Z V V V V V V V V V V V B Z R R Z V V m z z m V V V ",
"V V V V V V V Z R R Z V V V V N n n N N V Z R R Z V V V V V V V V V V V C Z R R Z V V m z z m N n n ",
"V V V V V V V C Z Z C V V V V n k g n C V V Z C C V V V V V V V V V V V V C Z Z C V V N m m N n k k ",
"V V V V V V V V V V V V V V N n k k n V m m N V V V V V V V V V V V V V V V V V V V V V V V V n k k ",
"V V V V V V V V V V V V V N C N n n N m z z m V V V V V V V V V V V V V V V V V V V V V V V V N n n ",
"C V V V V V V V V V V V V V V V V V V m z z m V V V V C Z Z C V V V V V V V V V V V V C Z Z C V V V ",
"Z V V V V V V V V V V V V V V V V V V V m m N V V V V Z R R Z V V V V V V V V V V V V Z R R Z V V V ",
"Z C Z Z C V V V V V V V V V V C Z Z C V V M n n V V V Z R R Z V Z Z B V V V V V V V V Z R R Z C Z Z ",
"C Z R R Z V V V V V V V V V V Z R R Z V V n k k n V V V Z Z V Z R R Z V V V 4 V V V V C Z Z C Z R R ",
"V Z R R Z V V V V V V V V V V Z R R Z V V n k k n V V V V V V Z R . . . @ & . . N C V V V V V Z R R ",
"V C Z Z C V V V V V V V V V V C Z Z C V V M n n N V V V V V V m . >.=.%.Y G $ ; V N V V V V V C Z Z ",
"V V V V V V V V V N m m N V V V V V V V B B C N m m N h ; 8 9 . =.*.=.%.F F 6 . m m N V V V V V V V ",
"V V V V V V V V V m z z m V V V V V V V B N V m z z . 5 ~ ~ . *.*.%.. . . . . m z z m V V V V V V V ",
"V V V V V V V V V m z z m V V V V N V , . . . . . . . E E . =.=.%.. l V N N V m z z m V V V V V V V ",
"V V V V V V V V V N m m N V V V V . . ~ / ~ ~ ~ E . E ~ ~ +.%.=.. . V V V V V N m m N V V V V V V V ",
"N V V V V V N C Z Z C V V V V f . ~ ^ ~ _ E _ E _ . ] ^ ~ . w . ~ ~ . B B C Z Z C V V V V V V V V V ",
"m V V V V N C Z R R Z V V V O . T _ ^ / E _ E _ E . ] / / ^ ( ~ ~ ~ . N B Z R R Z V V V V V V V V V ",
"m N n n N V C Z R R Z ; V * . ~ _ E ^ E _ E _ E ~ _ . E ( E ~ ~ ~ O u V B Z R R Z V V V V V V V V V ",
"N n k k n V V B Z Z 0 =.. . / ~ E _ E _ E _ E ^ ~ ~ ` . ^ ( E / E - . V C C Z Z C V V V V V V V V V ",
"N n k k n N m m V V . ;.:.. [ ~ _ E / ^ ^ E ~ E ^ ! ( E X . U T . ^ X M m m N V V V V V V V V V V V ",
"V N n n N m z z m V :.1.:.:.. ~ E _ E ~ E _ . . . _ E _ E :.:.-./ ^ ^ . z z m V V V V V V V V V V V ",
"C V V V V m z z m g 1.:.:.1.=.. _ _ i . . @.:.:.. ~ / E 6.1.:.:.1.{ ..X z z m V V V V C Z Z C V V V ",
"Z V V V C N m m N x :.1.6.:.:.1.@ E :.:.:.:.:.6.. E ~ E :.:.1.:.1.1.*.*.X m V V V V V Z R R Z V V V ",
"Z C Z Z C V V N n n 1.1.@.1.1.1.. E ] :.:.:.6.6.. ` ` _ :.:.:.:.:.:.:.8.. M n n N V V Z R R Z C Z Z ",
"C Z R R Z V N n k k . 1.. *.;.;.. ~ . :.. :.4.6.. ` [ / =.:.:.6.1.:.6.7.. n k k n V V C Z Z C Z R R ",
"V Z R R Z V V n g k . A . =.:.. j ~ . =.. -.6.o.d _ _ ( _ :.:.1.;.1.7.0.. n g k n V V V V V V Z R R ",
"V C Z Z C V V N n n . E . . . j ~ ~ E . . :.-.. E / ( ~ E >.6.:.8.7.7.9.. M n n N V V V V V V C Z Z ",
"V V V V V V V V C N . E s y w ~ ( _ E / . . . p ~ ^ / ~ ^ :.:.:.4.:.6.9.. V V N m m N N V V V V V V ",
"V V V V V V V V B m 1 ~ a U U _ ~ E ^ ^ E I E ( ~ ~ ^ ~ ^ :.:.:.:.6.7.9.. V V m z z m V V V V V V V ",
"V V V V V V V V B m z O p p a J E _ E _ ~ ( E ~ / ^ ~ ~ ' :.:.1.>.6.7.&.. N V m z z m V V V V V V V ",
"V V V V V V V V B N m . . . t d s E _ E L . . . . / ~ ~ ^ O.=.:.>.7.7.j b N V N m m N V V V V V V V ",
"V V V V V V V C Z Z C . 1.:.:.:.K . d :.1.:.:.1.. ~ ~ ~ E _ E _ | -.q.. V C Z Z C V V N m m N V V V ",
"V V V V V V V Z R R Z V . =.1.y 3.3.7.3.r :.=.. . ~ ~ / _ E _ E E } o.; V Z R R Z V V m z z m V V V ",
"V V V V V V V Z R R Z V < =.X.. 9 -.;.. . :.;.. ~ ^ ~ ~ E _ E / ~ E . N V Z R R Z V V m z z m N n n ",
"V V V V V V V C Z Z C V C . . 1.. 6 . :.D . . J ~ ^ / ~ _ E _ E ~ . B B V C Z Z C V V N m m N n k k ",
"V V V V V V V V V V V V V V . :.;.. ;.=.-.. X T / ^ ~ ~ / _ ~ ( . c V V V V V V V V V V V V V n k k ",
"V V V V V V V V V V V V V V N . = . . . . . J ~ / E ~ E _ E ~ . N B V V V V V V V V V V V V N N n n ",
"C V V V V V V V V V V V V V V V 7 . E p p S U ~ _ E / ( E . . B C B C V V V V V V V V C Z Z C V V V ",
"Z V V V V V V V V V V V V V V V V C % . X E ~ ~ ( E e . . R Z N N B V V V V V V V V V Z R R Z V V V ",
"Z C Z Z C V V V V V V V V V V B Z Z C V V l 3 2 4 q V Z R R Z C Z Z C V V V V V V V V Z R R Z C Z Z ",
"C Z R R Z V V V V V V V V V B Z R R Z V C n k k n V V C Z Z C Z R R Z V V V V V V V V C Z Z C Z R R ",
"V Z R R Z V V V V V V V V V C Z R R Z V V n k k n V V V V V V Z R R Z V V V V V V V V V V V V Z R R ",
"V C Z Z C V V V V V V V V V V C Z Z C V V N n n N V V V V V V C Z Z C V V V V V V V V V V V V C Z Z ",
"V V V V V V V V V N m m N V V V V V V V V V V N m m N V V V V V V V V V V V V N m m N V V V V V V V ",
"V V V V V V V V V m z z m V V V V V V V V V V m z z m V V V V V V V V V V V V m z z m V V V V V V V ",
"V V V V V V V V V m z z m V V V V V V V V V V m z z m V V V V V V V V V V V V m z z m V V V V V V V ",
"V V V V V V V V V N m m N V V V V V V V V V V N m m N V V V V V V V V V V V V N m m N V V V V V V V ",
"N V V V V V V C Z Z C V V V V V V V V V V C Z Z C V V N m m N V V V V V V C Z Z C V V V V V V V V V ",
"m V V V V V V Z R R Z V V V V V V V V V V Z R R Z V V m z z m V V V V V V Z R R Z V V V V V V V V V "
};
